<?xml version="1.0" encoding="iso-8859-1"?>
<!-- Generator: Adobe Illustrator 19.0.0, SVG Export Plug-In . SVG Version: 6.00 Build 0)  -->
<svg xmlns="http://www.w3.org/2000/svg" xmlns:xlink="http://www.w3.org/1999/xlink" version="1.1" id="Capa_1" x="0px" y="0px" viewBox="0 0 504.115 504.115" style="enable-background:new 0 0 504.115 504.115;" xml:space="preserve">
<path style="fill:#DCF1F9;" d="M410.122,36.321L359.631,7.393c-2.209-1.611-4.577-2.97-7.093-4.064l-0.744-0.421l-0.032,0.063  c-13.584-5.522-31.13-3.529-50.271,7.519l-155.518,89.777c-42.76,24.69-77.745,85.287-77.745,134.668v179.558  c0,24.08,8.361,41.157,21.847,49.534l-0.13,0.236l56.115,31.795l31.555-54.942l123.876-71.511  c42.752-24.69,77.745-85.291,77.745-134.668V90.088L410.122,36.321z"/>
<path style="fill:#CCE6F2;" d="M410.122,36.321l-54.047-12.678c-2.209-1.607-13.245-1.568-15.762-2.67l-4.009-1.599l-7.211-1.343  c-13.584-5.522-8.46-18.593-27.601-7.546l-155.518,89.781c-42.76,24.69-77.745,85.287-77.745,134.668v179.558  c0,24.08,8.361,41.157,21.847,49.534l-0.13,0.236l56.115,31.795l31.555-54.942l123.876-71.511  c42.752-24.69,77.745-85.291,77.745-134.668V90.088L410.122,36.321z"/>
<path style="fill:#BFD9E8;" d="M71.19,209.065c-1.887,8.791-2.962,17.495-2.962,25.868v179.558c0,24.08,8.361,41.157,21.847,49.534  l-0.13,0.236l56.115,31.795l31.555-54.942l123.876-71.511c7.263-4.194,14.285-9.492,20.961-15.537L71.19,209.065z"/>
<path style="fill:#FFFFFF;" d="M199.423,131.257c-42.76,24.686-77.753,85.291-77.753,134.668v179.562  c0,49.377,34.993,69.577,77.753,44.883l155.506-89.777c42.76-24.686,77.753-85.287,77.753-134.668V86.367  c0-49.376-34.993-69.573-77.753-44.883L199.423,131.257z"/>
<path style="opacity:0.1;fill:#5BC0D8;enable-background:new    ;" d="M432.682,86.367c0-49.376-34.993-69.573-77.753-44.883  l-155.506,89.773c-42.76,24.686-77.753,85.291-77.753,134.668v179.562c0,49.377,34.993,69.577,77.753,44.883"/>
<path style="fill:#FFFFFF;" d="M164.882,504.115h-0.008c-28.192,0-46.407-23.012-46.407-58.628V265.925  c0-50.523,35.592-112.183,79.344-137.444l155.514-89.777c12.607-7.278,24.769-10.965,36.147-10.965  c28.191,0,46.415,23.016,46.415,58.628v179.562c0,50.527-35.6,112.183-79.352,137.444L201.021,493.15  C188.415,500.425,176.26,504.115,164.882,504.115z M389.477,34.15c-10.24,0-21.323,3.399-32.937,10.098l-155.518,89.785  c-41.984,24.241-76.146,83.409-76.146,131.891v179.562c0,32.209,15.325,52.216,39.999,52.216h0.008  c10.24,0,21.315-3.399,32.929-10.098l155.514-89.785c41.984-24.237,76.146-83.409,76.146-131.891V86.367  C429.476,54.158,414.151,34.15,389.477,34.15z"/>
<g style="enable-background:new    ;">
	<path style="fill:#2F3638;" d="M280.791,149.985c-58.336,33.686-105.464,115.527-105.279,182.8   c0.154,53.823,30.551,82.018,72.57,73.901c0.654-0.244,1.256-0.524,1.812-0.847c3.919-2.269,5.392-6.345,5.388-9.161   c-0.012-2.907-0.114-10.531-0.205-20.669c-3.958,3.285-7.491,5.754-10.65,7.57c-20.287,11.717-24.986-3.332-24.986-3.332   c-4.852-11.315-11.784-11.047-11.784-11.047c-9.2-1.953-0.134-7.345,0.67-7.806c0.039-0.024,0.055-0.032,0.055-0.032   c10.575-5.25,16.191,3.23,16.191,3.23c5.305,7.341,12.398,6.152,18.684,2.529c4.97-2.867,9.433-7.259,12.083-10.165   c0.933-8.444,3.651-15.372,6.664-20.161c-23.469,10.476-48.156,14.261-48.286-32.421c-0.035-13.32,4.061-26.589,10.776-38.979   c-1.075-2.489-4.734-12.745,0.949-32.851c0,0,0.768-0.725,2.359-1.646c3.828-2.213,12.449-5.545,26.726-2.631   c8.405-7.55,17.428-14.131,26.423-19.361c8.976-5.148,18.007-8.992,26.451-11.169c14.218-19.361,22.812-25.966,26.628-28.172   c1.595-0.91,2.359-1.075,2.359-1.075c5.805,13.473,2.217,27.916,1.13,31.657c6.794,4.592,10.925,13.107,10.961,26.427   c0.134,46.793-24.548,71.365-48.065,87.946c3.812,1.564,7.223,7.05,7.251,18.412c0.047,16.317-0.067,29.511-0.055,33.54   c0.008,2.824,1.461,5.23,5.384,2.962c0.583-0.339,1.225-0.768,1.91-1.323c41.862-40.346,71.971-103.44,71.818-157.263   C386.539,143.561,339.1,116.33,280.791,149.985"/>
</g>
<path d="M381.218,175.502c-14.1-40.361-53.768-52.449-100.427-25.517c-58.336,33.686-105.464,115.527-105.279,182.8  c0.154,53.662,30.377,81.829,72.2,73.953l7.546-13.068c-0.039-3.848-0.114-10.039-0.181-17.66c-3.958,3.285-7.491,5.754-10.65,7.57  c-20.287,11.717-24.986-3.332-24.986-3.332c-4.852-11.315-11.784-11.047-11.784-11.047c-9.2-1.953-0.134-7.345,0.67-7.806  c0.039-0.024,0.055-0.032,0.055-0.032c10.575-5.25,16.191,3.23,16.191,3.23c5.305,7.341,12.398,6.152,18.684,2.529  c4.97-2.867,9.433-7.259,12.083-10.165c0.933-8.444,3.651-15.372,6.664-20.161c-23.469,10.476-48.156,14.261-48.286-32.421  c-0.035-13.32,4.061-26.589,10.776-38.979c-1.075-2.489-4.734-12.745,0.949-32.851c0,0,0.768-0.725,2.359-1.646  c3.828-2.213,12.449-5.545,26.726-2.631c8.405-7.55,17.428-14.131,26.423-19.361c8.976-5.148,18.007-8.992,26.451-11.169  c14.218-19.361,22.812-25.966,26.628-28.172c1.595-0.91,2.359-1.075,2.359-1.075c5.805,13.473,2.217,27.916,1.13,31.657  c6.794,4.592,10.925,13.107,10.961,26.427c0.008,2.044-0.095,3.99-0.181,5.951L381.218,175.502z"/>
<path d="M300.417,314.51c0.138,0.059,0.272,0.158,0.41,0.228l0.52-0.902C301.039,314.057,300.728,314.293,300.417,314.51z"/>
<g>
</g>
<g>
</g>
<g>
</g>
<g>
</g>
<g>
</g>
<g>
</g>
<g>
</g>
<g>
</g>
<g>
</g>
<g>
</g>
<g>
</g>
<g>
</g>
<g>
</g>
<g>
</g>
<g>
</g>
</svg>
