<svg xmlns="http://www.w3.org/2000/svg" data-name="Layer 1" viewBox="0 0 512 512"><polygon fill="#d4e1f4" points="68.79 340.1 91.871 300.048 65.5 153.36 235.506 50.8 255.56 16 34.5 149.36 68.79 340.1"/><path fill="#1ae5be" d="M200.845 122.968a6 6 0 10-10.4-5.992l-9.986 17.329a6 6 0 1010.4 5.991zM218.614 80.116a6 6 0 00-8.194 2.2l-9.986 17.329a6 6 0 1010.4 5.992l9.986-17.328A6 6 0 00218.614 80.116zM178.671 149.43a6 6 0 00-8.194 2.2l-9.987 17.329a6 6 0 1010.4 5.992l9.986-17.329A6 6 0 00178.671 149.43zM238.586 45.458a6 6 0 00-8.194 2.2L220.405 64.99a6 6 0 1010.4 5.992l9.986-17.329A6 6 0 00238.586 45.458zM138.727 218.745a6 6 0 00-8.195 2.2l-9.985 17.329a6 6 0 1010.4 5.991l9.986-17.329A6 6 0 00138.727 218.745zM98.783 288.06a6 6 0 00-8.194 2.2L80.6 307.591A6 6 0 1091 313.583l9.986-17.329A6 6 0 0098.783 288.06zM78.812 322.718a6 6 0 00-8.195 2.2L63.6 337.105l10.4 5.993 7.023-12.186A6 6 0 0078.812 322.718zM110.561 255.605l-9.986 17.33a6 6 0 1010.4 5.99l9.985-17.329a6 6 0 10-10.4-5.991zM150.5 186.291l-9.985 17.329a6 6 0 1010.4 5.991l9.985-17.329a6 6 0 10-10.4-5.991zM270.746 30.333L260.76 13l0 0-10.393 0-9.986 17.329a6 6 0 1010.4 5.992l4.789-8.309 4.788 8.309a6 6 0 0010.4-5.992zM430.521 307.591l-9.987-17.329a6 6 0 10-10.4 5.992l9.986 17.329a6 6 0 0010.4-5.992zM410.548 272.935l-9.986-17.33a6 6 0 10-10.4 5.991l9.985 17.329a6 6 0 0010.4-5.99zM390.576 238.277l-9.985-17.329a6 6 0 10-10.4 5.991l9.986 17.329a6 6 0 1010.4-5.991zM432.312 322.718a6 6 0 00-2.2 8.194l7.023 12.186 10.4-5.993-7.022-12.185A6 6 0 00432.312 322.718zM350.633 168.962l-9.987-17.329a6 6 0 10-10.4 5.992l9.986 17.329a6 6 0 1010.4-5.992zM310.689 99.647L300.7 82.318a6 6 0 10-10.4 5.993l9.986 17.328a6 6 0 1010.4-5.992zM370.6 203.62l-9.985-17.329a6 6 0 10-10.4 5.991l9.985 17.329a6 6 0 1010.4-5.991zM330.661 134.305l-9.986-17.329a6 6 0 10-10.4 5.992l9.987 17.328a6 6 0 1010.4-5.991zM290.718 64.99l-9.987-17.329a6 6 0 10-10.4 5.992l9.986 17.329a6 6 0 1010.4-5.992zM217.845 491.125L200.2 478.465a6 6 0 10-7 9.75l17.641 12.66a6 6 0 007-9.75zM175.831 460.974l-24.373-17.493a6 6 0 10-7 9.75l24.373 17.493a6 6 0 007-9.75zM127.086 425.99L102.713 408.5a6 6 0 10-7 9.75L120.09 435.74a6 6 0 007-9.75zM78.34 391.007L53.967 373.515a6 6 0 10-7 9.75l24.373 17.492a6 6 0 007-9.75z"/><path fill="#0635c9" d="M480.591,144.22,258.652,10.857a6,6,0,0,0-6.19.005L31.4,144.226a6,6,0,0,0-2.8,6.2L62.888,341.163a5.993,5.993,0,0,0,2.333,3.759l186.768,138.4a6,6,0,0,0,7.145,0L445.9,344.922a5.993,5.993,0,0,0,2.328-3.733L483.4,150.451A6,6,0,0,0,480.591,144.22ZM255.562,471.036,86.968,346.1H424.156ZM437.335,334.1H73.811L41.136,152.367,255.567,23,470.846,152.364Z"/></svg>