<svg xmlns="http://www.w3.org/2000/svg" data-name="Layer 1" viewBox="0 0 512 512"><polygon fill="#d4e1f4" points="90.5 488.85 120.818 489.683 225.606 104.621 195.82 103.84 90.5 488.85"/><path fill="#1ae5be" d="M350.658 341.9a6 6 0 00-6 6v20a6 6 0 1012 0v-20A6 6 0 00350.658 341.9zM350.658 381.9a6 6 0 00-6 6v20a6 6 0 1012 0v-20A6 6 0 00350.658 381.9zM350.658 421.9a6 6 0 00-6 6v20a6 6 0 1012 0v-20A6 6 0 00350.658 421.9zM350.658 461.9a6 6 0 00-6 6v24h12v-24A6 6 0 00350.658 461.9zM350.658 301.9a6 6 0 00-6 6v20a6 6 0 1012 0v-20A6 6 0 00350.658 301.9zM350.658 141.9a6 6 0 00-6 6v20a6 6 0 1012 0v-20A6 6 0 00350.658 141.9zM344.658 127.9a6 6 0 0012 0v-20h-12zM350.658 221.9a6 6 0 00-6 6v20a6 6 0 1012 0v-20A6 6 0 00350.658 221.9zM350.658 261.9a6 6 0 00-6 6v20a6 6 0 1012 0v-20A6 6 0 00350.658 261.9zM350.658 181.9a6 6 0 00-6 6v20a6 6 0 1012 0v-20A6 6 0 00350.658 181.9zM97.218 303.449a6 6 0 00-7.412 4.131l-5.468 19.238A6 6 0 1095.881 330.1l5.468-19.239A6 6 0 0097.218 303.449zM86.281 341.925a6 6 0 00-7.412 4.131L73.4 365.294a6 6 0 1011.543 3.281l5.468-19.238A6 6 0 0086.281 341.925zM119.092 226.5a6 6 0 00-7.412 4.13l-5.469 19.238a6 6 0 1011.543 3.281l5.469-19.237A6 6 0 00119.092 226.5zM108.155 264.974a6 6 0 00-7.412 4.13l-5.469 19.238a6 6 0 1011.543 3.281l5.469-19.237A6 6 0 00108.155 264.974zM64.408 418.877A6 6 0 0057 423.008l-5.469 19.237a6 6 0 1011.543 3.281l5.469-19.237A6 6 0 0064.408 418.877zM75.345 380.4a6 6 0 00-7.412 4.131L62.464 403.77a6 6 0 1011.543 3.281l5.469-19.239A6 6 0 0075.345 380.4zM151.9 111.07a6 6 0 00-7.412 4.131l-5.468 19.238a6 6 0 1011.543 3.281l5.468-19.238A6 6 0 00151.9 111.07zM140.965 149.546a6 6 0 00-7.412 4.131l-5.468 19.238a6 6 0 1011.543 3.281l5.468-19.238A6 6 0 00140.965 149.546zM130.029 188.022a6 6 0 00-7.412 4.131l-5.469 19.238a6 6 0 1011.543 3.281l5.469-19.238A6 6 0 00130.029 188.022z"/><path fill="#0635c9" d="M462.617,13.89A6,6,0,0,0,457,10h-.037l-154.835.958a6,6,0,0,0-3.758,1.353L192.027,99.191a5.991,5.991,0,0,0-1.987,3.065l0,0L84.716,487.269a6,6,0,0,0,5.623,7.581L350.494,502l.164,0a6,6,0,0,0,4-1.529l104.059-93.158a6,6,0,0,0,2-4.435L463,16.035h-.016A5.954,5.954,0,0,0,462.617,13.89Zm-158.3,9.054L440.764,22.1l-92.271,79.737L212.13,98.263Zm44.115,466.993L98.307,483.063l102.062-373.1L350.5,113.9l.157,0a6,6,0,0,0,3.924-1.46l96.34-83.255-2.19,370.965Z"/></svg>