<svg xmlns="http://www.w3.org/2000/svg" data-name="Layer 1" viewBox="0 0 512 512"><polygon fill="#d4e1f4" points="58.24 399.91 88.24 405.892 88.24 101.027 58.24 94.58 58.24 399.91"/><path fill="#1ae5be" d="M16 345.138a6 6 0 00-6 6v30a6 6 0 0012 0v-30A6 6 0 0016 345.138zM16 285.139a6 6 0 00-6 6v30a6 6 0 0012 0v-30A6 6 0 0016 285.139zM16 165.138a6 6 0 00-6 6v30a6 6 0 0012 0v-30A6 6 0 0016 165.138zM16 105.138a6 6 0 00-6 6v30a6 6 0 0012 0v-30A6 6 0 0016 105.138zM16 225.138a6 6 0 00-6 6v30a6 6 0 0012 0v-30A6 6 0 0016 225.138zM253.841 254.364L235.8 263a6 6 0 105.181 10.822l18.039-8.637a6 6 0 10-5.181-10.823zM326 219.816l-18.039 8.637a6 6 0 105.182 10.823l18.039-8.637A6 6 0 10326 219.816zM289.918 237.09l-18.038 8.637a6 6 0 105.182 10.823l18.038-8.637a6 6 0 00-5.182-10.823zM217.763 271.639l-18.039 8.637a6 6 0 105.181 10.823l18.039-8.638a6 6 0 10-5.181-10.822z"/><path fill="#0635c9" d="M497.163,248.848,342.587,218.3V70.143h-.019a6.071,6.071,0,0,0-.019-.673A6,6,0,0,0,337.39,64.2L195.662,45.054a5.959,5.959,0,0,0-2.626.23L56.421,88.862a5.99,5.99,0,0,0-4.16,5.717h-.017V399.911A6,6,0,0,0,57.07,405.8l306.354,61.089,3.86-.519,131.4-65.791A6,6,0,0,0,502,395.209V254.734A6,6,0,0,0,497.163,248.848ZM195.4,57.127,312.166,72.9l-118.79,44.58L81.536,93.447ZM64.244,394.989V102.005l123.592,26.558V291.577a6,6,0,0,0,4.986,5.914l164.789,28.237.933,127.946Zm296.88-80.834L199.836,286.518V127.873L330.587,78.8V223.228a6,6,0,0,0,4.837,5.886l140.671,27.8ZM490,391.5,370.527,451.321l-.933-127.979L490,263.4Z"/></svg>