<svg xmlns="http://www.w3.org/2000/svg" data-name="Layer 1" viewBox="0 0 512 512"><polygon fill="#d4e1f4" points="69.82 376 99.82 393.342 99.82 153.343 69.82 136 69.82 376"/><polygon fill="#d4e1f4" points="138.44 336.33 168.44 316.394 168.44 158.327 138.44 175.67 138.44 336.33"/><path fill="#1ae5be" d="M271.408 204.334a6 6 0 0012 0v-20a6 6 0 00-12 0zM277.408 130.334a6 6 0 006-6v-20a6 6 0 00-12 0v20A6 6 0 00277.408 130.334zM271.408 164.334a6 6 0 0012 0v-20a6 6 0 00-12 0zM185.09 298.127L168.433 309.2a6 6 0 106.642 9.994l16.657-11.069a6 6 0 10-6.642-9.994zM151.775 320.267l-16.657 11.069 6.643 9.994 16.657-11.069a6 6 0 10-6.643-9.994zM218.4 275.987l-16.657 11.07a6 6 0 106.643 9.994l16.657-11.07a6 6 0 10-6.643-9.994zM391.618 312.674L374.961 301.6a6 6 0 00-6.643 10l16.658 11.069a6 6 0 106.642-9.994zM358.3 290.535l-16.658-11.07A6 6 0 00335 289.459l16.657 11.07a6 6 0 006.643-9.994zM251.718 253.848l-16.657 11.069a6 6 0 106.642 9.994l16.657-11.069a6 6 0 10-6.642-9.994zM399.957 325.42a6 6 0 001.676 8.318l11.424 7.592 6.642-9.994-11.424-7.592A6 6 0 00399.957 325.42zM324.989 268.4l-16.657-11.071a6 6 0 00-6.643 9.994l16.658 11.071a6 6 0 006.642-9.994zM291.675 246.256l-8.267-5.494V224.334a6 6 0 00-12 0v16.428l-3.033 2.016a6 6 0 106.643 9.994l2.39-1.589 7.624 5.067a6 6 0 106.643-9.994zM27 149.833a6 6 0 00-6 6v30a6 6 0 0012 0v-30A6 6 0 0027 149.833zM27 269.834a6 6 0 00-6 6v30a6 6 0 0012 0v-30A6 6 0 0027 269.834zM27 329.834a6 6 0 00-6 6v20.419a6 6 0 0012 0V335.834A6 6 0 0027 329.834zM27 209.833a6 6 0 00-6 6v30a6 6 0 0012 0v-30A6 6 0 0027 209.833z"/><path fill="#0635c9" d="M488,130.806l-207.592-120a6,6,0,0,0-6.006,0l-207.591,120a6,6,0,0,0-3,5.194V376a6,6,0,0,0,3,5.194l207.591,120a6,6,0,0,0,6.006,0L488,381.194A6,6,0,0,0,491,376V136A6,6,0,0,0,488,130.806ZM277.408,22.93,473.011,136l-56.633,32.737L280.411,90.14a6,6,0,0,0-6.006,0l-135.966,78.6L81.806,136Zm0,386.8L144.439,332.871V179.129l132.969-76.864,132.97,76.864V332.871ZM75.817,146.4l56.622,32.731v157.2a6,6,0,0,0,3,5.194l135.971,78.6V485.6L75.817,372.538ZM283.408,485.6V420.127l135.973-78.6a6,6,0,0,0,3-5.194v-157.2L479,146.4v226.14Z"/></svg>