<svg xmlns="http://www.w3.org/2000/svg" data-name="Layer 1" viewBox="0 0 512 512"><polygon fill="#d4e1f4" points="236.907 431.733 85.25 256 237.373 79.732 254.47 25.16 55.25 256 253.86 486.14 236.907 431.733"/><path fill="#1ae5be" d="M175.246 262h20a6 6 0 000-12h-20a6 6 0 100 12zM215.246 262h20a6 6 0 000-12h-20a6 6 0 100 12zM255.246 262h20a6 6 0 000-12h-20a6 6 0 100 12zM135.246 262h20a6 6 0 000-12h-20a6 6 0 100 12zM121.246 256a6 6 0 00-6-6h-20a6 6 0 100 12h20A6 6 0 00121.246 256zM81.246 256a6 6 0 00-6-6h-20v12h20A6 6 0 0081.246 256zM435.246 250h-20a6 6 0 000 12h20a6 6 0 000-12zM295.246 262h20a6 6 0 000-12h-20a6 6 0 000 12zM449.246 256a6 6 0 006 6H469.5V250H455.246A6 6 0 00449.246 256zM375.246 262h20a6 6 0 000-12h-20a6 6 0 000 12zM335.246 262h20a6 6 0 000-12h-20a6 6 0 000 12zM58.1 332.185a6 6 0 008.921-8.025l-20.064-22.3a6 6 0 00-8.922 8.025zM87.089 346.462a6 6 0 00-8.92 8.026l20.065 22.3a6 6 0 108.92-8.027zM158.427 443.7L178.492 466a6 6 0 108.922-8.026l-20.065-22.3a6 6 0 00-8.922 8.027zM146.836 421.843a6 6 0 00.448-8.473l-20.064-22.3a6 6 0 00-8.922 8.026l20.064 22.3a6 6 0 008.474.447z"/><path fill="#0635c9" d="M257.831,499.92a6,6,0,0,0,9.084,0l207.127-240a6,6,0,0,0,0-7.84l-207.127-240a6,6,0,0,0-9.084,0L50.7,252.08a6,6,0,0,0,0,7.84Zm27.982-40.264,65.675-201.8a5.993,5.993,0,0,0,0-3.722l-66.2-202.406L461.574,256ZM264.95,28.17,339.472,256,265.555,483.129l-3.182,3.687-3.155-3.656L188.437,256.005,259.821,28.141l2.552-2.957ZM240.08,51.015,176.425,254.206a6,6,0,0,0,0,3.579l63.123,202.581L63.172,256Z"/></svg>