<svg xmlns="http://www.w3.org/2000/svg" data-name="Layer 1" viewBox="0 0 512 512"><polygon fill="#d4e1f4" points="46.476 390.906 256 76.953 256 16 16 375.62 46.476 390.906"/><path fill="#1ae5be" d="M256 314a6 6 0 00-6 6v30a6 6 0 0012 0V320A6 6 0 00256 314zM256 434a6 6 0 00-6 6v30a6 6 0 0012 0V440A6 6 0 00256 434zM256 374a6 6 0 00-6 6v30a6 6 0 0012 0V380A6 6 0 00256 374zM256 254a6 6 0 00-6 6v30a6 6 0 0012 0V260A6 6 0 00256 254zM256 194a6 6 0 00-6 6v30a6 6 0 0012 0V200A6 6 0 00256 194zM250 50a6 6 0 0012 0V20H250zM256 74a6 6 0 00-6 6v30a6 6 0 0012 0V80A6 6 0 00256 74zM256 134a6 6 0 00-6 6v30a6 6 0 0012 0V140A6 6 0 00256 134zM195.859 26.251a6 6 0 00-8.312 1.707L171.034 53a6 6 0 1010.018 6.606l16.513-25.047A6 6 0 00195.859 26.251zM162.833 76.344a6 6 0 00-8.312 1.707L138.007 103.1a6 6 0 1010.019 6.605l16.513-25.046A6 6 0 00162.833 76.344zM96.78 176.529a6 6 0 00-8.312 1.707L71.955 203.282a6 6 0 1010.018 6.6l16.514-25.046A6 6 0 0096.78 176.529zM129.806 126.437a6 6 0 00-8.312 1.706l-16.513 25.046A6 6 0 10115 159.795l16.513-25.046A6 6 0 00129.806 126.437zM63.754 226.622a6 6 0 00-8.312 1.706L38.928 253.375a6 6 0 1010.019 6.6L65.46 234.934A6 6 0 0063.754 226.622zM30.727 276.715a6 6 0 00-8.312 1.706L10.991 295.749a6 6 0 1010.018 6.6l11.425-17.328A6 6 0 0030.727 276.715z"/><path fill="#0635c9" d="M260.991,12.669a6,6,0,0,0-9.982,0l-240,359.618a6,6,0,0,0,2.3,8.694l240,120.382a6,6,0,0,0,5.38,0l240-120.382a6,6,0,0,0,2.3-8.694ZM256,489.287,24.761,373.3,256,26.809,487.239,373.3Z"/></svg>