<svg xmlns="http://www.w3.org/2000/svg" data-name="Layer 1" viewBox="0 0 512 512"><path fill="#d4e1f4" d="M271.38,31.5C147.33,31.5,46.77,132.01,46.77,256S147.33,480.5,271.38,480.5c5.042,0,10.041-.183,15-.51C169.327,472.274,76.77,374.951,76.77,256S169.327,39.726,286.38,32.01C281.421,31.683,276.422,31.5,271.38,31.5Z"/><path fill="#d4e1f4" d="M286.38,142.411a114.57,114.57,0,1,0,0,227.178,114.567,114.567,0,0,1,0-227.178Z"/><path fill="#1ae5be" d="M16.8 282.548c.159 0 .319-.006.48-.019a6 6 0 005.508-6.455C22.266 269.443 22 262.689 22 256a6 6 0 00-12 0c0 7 .278 14.076.828 21.021A6 6 0 0016.8 282.548zM34.188 333.383A248.292 248.292 0 0126.8 305.067a6 6 0 00-11.77 2.338A260.575 260.575 0 0022.776 337.1a6 6 0 0011.412-3.713zM44.883 360.623a6 6 0 10-10.889 5.044A259.781 259.781 0 0048.524 392.7a6 6 0 0010.215-6.3A247.986 247.986 0 0144.883 360.623zM75.546 410.378a6 6 0 10-9.4 7.454 266.284 266.284 0 0020.417 22.9 6 6 0 108.482-8.487A254.587 254.587 0 0175.546 410.378zM491.017 250h-20a6 6 0 000 12h20a6 6 0 100-12zM411.017 250h-20a6 6 0 000 12h20a6 6 0 100-12zM451.017 250h-20a6 6 0 000 12h20a6 6 0 100-12zM151.767 250h-20a6 6 0 000 12h20a6 6 0 000-12zM111.767 250h-20a6 6 0 000 12h20a6 6 0 000-12zM51.767 262h20a6 6 0 000-12h-20a6 6 0 100 12z"/><path fill="#0635c9" d="M271.383,25.5a230.477,230.477,0,0,0-163.07,393.489A230.559,230.559,0,1,0,434.453,93.011,229.167,229.167,0,0,0,271.383,25.5Zm154.587,385A218.416,218.416,0,1,1,490,256,217.247,217.247,0,0,1,425.97,410.5Z"/><path fill="#0635c9" d="M271.383,135.426c-66.518,0-120.633,54.09-120.633,120.574s54.115,120.574,120.633,120.574S392.017,322.484,392.017,256,337.9,135.426,271.383,135.426Zm0,229.148A108.574,108.574,0,1,1,380.017,256,108.726,108.726,0,0,1,271.383,364.574Z"/></svg>