<svg xmlns="http://www.w3.org/2000/svg" data-name="Layer 1" viewBox="0 0 512 512"><path fill="#d4e1f4" d="M291.181,229.433q-7.47-.169-15.141-.173c-44.69,0-84.136,4.591-107.7,11.594L97.646,88.328h0C137.6,99.639,202.617,107,276.04,107q7.539,0,14.954-.1C187.847,105.47,104.191,89.5,88.65,68.92l-.01-.03A11.414,11.414,0,0,1,86.07,62c0-23.818,90.487-43.316,204.97-44.894q-7.437-.1-15-.106C154.56,17,56.07,37.15,56.07,62a11.414,11.414,0,0,0,2.57,6.89l.01.03L145.36,256,57.58,444.69v.01a10.552,10.552,0,0,0-1.51,5.3c0,24.85,98.49,45,219.97,45q7.565,0,15-.106C176.557,493.316,86.07,473.818,86.07,450a10.552,10.552,0,0,1,1.51-5.3v-.01c12.265-21.359,97.6-38.127,203.448-39.586q-7.431-.1-14.988-.1c-73.619,0-138.791,7.4-178.722,18.757l71.424-152.492c23.61,6.936,62.861,11.475,107.3,11.475q7.539,0,14.894-.179c-63.554-1.5-113.228-12.321-115.485-25.616l.465-.992h-.552C175.478,242.233,226.082,230.941,291.181,229.433Z"/><path fill="#1ae5be" d="M220.512 225.764a6 6 0 00.56 11.974q.285 0 .574-.028c6.355-.6 12.991-1.1 19.723-1.484a6 6 0 10-.68-11.981C233.807 224.635 227.018 225.146 220.512 225.764zM295.034 229.507a6 6 0 005.769 6.223c6.694.254 13.349.616 19.779 1.075.145.01.289.015.433.015a6 6 0 00.421-11.985c-6.562-.468-13.351-.837-20.178-1.1A5.991 5.991 0 00295.034 229.507zM334.973 231.961a6 6 0 005.3 6.624c6.877.763 13.445 1.653 19.52 2.646a6 6 0 101.935-11.843c-6.278-1.026-13.051-1.944-20.132-2.729A6.01 6.01 0 00334.973 231.961zM374 267.613c-5.795 1.334-12.266 2.559-19.231 3.64a6 6 0 101.839 11.857c7.251-1.125 14.008-2.4 20.083-3.8A6 6 0 00374 267.613zM335.217 273.776c-6.334.668-12.963 1.234-19.7 1.68a6 6 0 00.391 11.987c.133 0 .268 0 .4-.012 6.894-.458 13.679-1.036 20.167-1.721a6 6 0 00-1.258-11.934zM409.067 249.593a6 6 0 00-6 5.911c-.138.312-1.585 3.036-10.769 6.675a6 6 0 104.42 11.156c4.538-1.8 18.348-7.269 18.348-17.742A6 6 0 00409.067 249.593zM260.881 223.441a6 6 0 00.138 12h.143c6.529-.154 13.25-.2 19.82-.154h.045a6 6 0 00.043-12C274.381 223.236 267.534 223.286 260.881 223.441zM374.552 237.813a6 6 0 004.372 7.273 94.136 94.136 0 0117.753 5.973 6 6 0 005.24-10.8 105.724 105.724 0 00-20.093-6.822A6 6 0 00374.552 237.813zM295.929 276.419c-.066 0-.131 0-.2 0-6.5.208-13.128.313-19.7.313h-.114a6 6 0 000 12h.114c6.7 0 13.451-.107 20.079-.319a6 6 0 00-.187-12zM207.148 233.229a6 6 0 00-6.79-5.089c-7.226 1.035-13.992 2.224-20.109 3.535a6 6 0 102.514 11.733c5.849-1.253 12.341-2.393 19.3-3.389A6 6 0 00207.148 233.229zM177.928 267.5a109.629 109.629 0 01-18.027-5.725 6 6 0 00-4.83 10.984 121.168 121.168 0 0020.054 6.409 6 6 0 002.8-11.668zM256.107 276.424c-6.7-.212-13.358-.534-19.778-.958a6 6 0 10-.789 11.974c6.556.432 13.348.761 20.189.978.064 0 .128 0 .193 0a6 6 0 00.185-12zM216.633 273.786c-6.845-.725-13.418-1.584-19.536-2.552a6 6 0 10-1.873 11.854c6.318 1 13.1 1.884 20.143 2.632a6.3 6.3 0 00.641.033 6 6 0 00.625-11.967zM164.269 248.494a6 6 0 00-4.081-11.285c-10.912 3.945-17.382 8.5-19.78 13.928a6 6 0 1010.977 4.849C151.537 255.641 153.194 252.5 164.269 248.494zM92.8 264.039a6 6 0 00-7.967 2.922l-12.613 27.22a6 6 0 1010.888 5.045l12.614-27.22A6 6 0 0092.8 264.039zM42.352 372.918a6 6 0 00-7.967 2.922L21.771 403.06A6 6 0 1032.66 408.1l12.613-27.219A6 6 0 0042.352 372.918zM67.577 318.479A6 6 0 0059.61 321.4L47 348.62a6 6 0 1010.889 5.045L70.5 326.445A6 6 0 0067.577 318.479z"/><path fill="#0635c9" d="M432.777,24.3C390.848,15.724,335.184,11,276.037,11S161.227,15.724,119.3,24.3C73.364,33.7,50.074,46.384,50.074,62a16.689,16.689,0,0,0,3.245,9.685L138.745,256l-86.6,186.175.024.011A16.052,16.052,0,0,0,50.074,450c0,15.618,23.29,28.3,69.223,37.7,41.93,8.578,97.6,13.3,156.74,13.3s114.811-4.725,156.74-13.3C478.71,478.3,502,465.616,502,450a15.823,15.823,0,0,0-1.628-6.935l.022-.009L415.654,255.6,500.442,68.836l-.021-.01A15.809,15.809,0,0,0,502,62C502,46.384,478.71,33.7,432.777,24.3ZM121.7,36.059C162.864,27.638,217.675,23,276.037,23S389.21,27.638,430.372,36.059C477.441,45.689,490,56.9,490,62a4.473,4.473,0,0,1-.483,1.873h0c-2.663,5.651-17.188,15.486-59.145,24.07C389.21,96.366,334.4,101,276.037,101S162.864,96.366,121.7,87.945C74.633,78.315,62.074,67.106,62.074,62S74.633,45.689,121.7,36.059ZM430.372,475.94C389.21,484.362,334.4,489,276.037,489S162.864,484.362,121.7,475.94C74.633,466.311,62.074,455.1,62.074,450s12.559-16.312,59.628-25.942C162.864,415.634,217.675,411,276.037,411s113.173,4.638,154.335,13.06C477.441,433.686,490,444.894,490,450S477.441,466.311,430.372,475.94ZM403.6,258.064l76.066,168.271q-17.02-7.914-46.889-14.036c-41.929-8.578-97.594-13.3-156.74-13.3s-114.81,4.725-156.74,13.3q-29.484,6.032-46.464,13.844L150.8,258.53a6,6,0,0,0,0-5.053L73.187,86.018Q90.11,93.716,119.3,99.7c41.93,8.578,97.594,13.3,156.74,13.3s114.811-4.724,156.74-13.3q29.805-6.1,46.836-14.014L403.6,253.113A6,6,0,0,0,403.6,258.064Z"/></svg>