<svg xmlns="http://www.w3.org/2000/svg" data-name="Layer 1" viewBox="0 0 512 512"><polygon fill="#d4e1f4" points="69.11 136 69.11 376 100.104 358.075 100.012 118.129 69.11 136"/><path fill="#1ae5be" d="M455.162 145.812l-17.29 10A6 6 0 10443.88 166.2l17.289-10a6 6 0 10-6.007-10.387zM420.583 165.809l-17.29 10A6 6 0 10409.3 186.2l17.29-10a6 6 0 00-6.007-10.388zM386 185.807l-17.29 10a6 6 0 106.008 10.387l17.29-10A6 6 0 10386 185.807zM316.844 225.8l-17.289 10a6 6 0 106.007 10.388l17.29-10a6 6 0 00-6.008-10.388zM351.424 205.805l-17.29 10a6 6 0 106.007 10.388l17.29-10a6 6 0 10-6.007-10.387zM219.09 215.8l-17.289-10a6 6 0 10-6.008 10.387l17.29 10A6 6 0 10219.09 215.8zM253.67 235.8l-17.29-10a6 6 0 10-6.007 10.388l17.289 10A6 6 0 10253.67 235.8zM115.352 155.811l-17.29-10A6 6 0 1092.055 156.2l17.29 10a6 6 0 006.007-10.387zM149.931 175.808l-17.289-10a6 6 0 00-6.008 10.388l17.29 10a6 6 0 106.007-10.388zM184.511 195.806l-17.29-10a6 6 0 10-6.007 10.387l17.29 10a6 6 0 006.007-10.387zM276.612 400a6 6 0 00-6 6v20a6 6 0 0012 0V406A6 6 0 00276.612 400zM276.612 440a6 6 0 00-6 6v20a6 6 0 0012 0V446A6 6 0 00276.612 440zM276.612 280a6 6 0 00-6 6v20a6 6 0 0012 0V286A6 6 0 00276.612 280zM276.612 360a6 6 0 00-6 6v20a6 6 0 0012 0V366A6 6 0 00276.612 360zM276.612 320a6 6 0 00-6 6v20a6 6 0 0012 0V326A6 6 0 00276.612 320zM27.888 135.9a6 6 0 00-6 6v30a6 6 0 0012 0v-30A6 6 0 0027.888 135.9zM27.888 195.9a6 6 0 00-6 6v30a6 6 0 0012 0v-30A6 6 0 0027.888 195.9zM27.888 315.9a6 6 0 00-6 6v30a6 6 0 0012 0v-30A6 6 0 0027.888 315.9zM27.888 255.9a6 6 0 00-6 6v30a6 6 0 0012 0v-30A6 6 0 0027.888 255.9z"/><path fill="#0635c9" d="M487.116,130.806l-207.5-120a6,6,0,0,0-6.007,0l-207.5,120a6,6,0,0,0-3,5.194V376a6,6,0,0,0,3,5.194l207.5,120a6,6,0,0,0,6.007,0l207.5-120a6,6,0,0,0,3-5.194V136A6,6,0,0,0,487.116,130.806Zm-9,234.793-195.5-113.06V26.4l195.5,113.06ZM276.612,256Zm-6-229.6V252.539L75.112,365.6V139.461Zm6,462.668L81.1,376,276.612,262.931,472.127,376Z"/></svg>