<svg xmlns="http://www.w3.org/2000/svg" data-name="Layer 1" viewBox="0 0 512 512"><path fill="#d4e1f4" d="M123.94,459.4,122.4,263.669c32.384,6.363,87.75,10.561,150.624,10.561q7.581,0,15.006-.082c-91.5-.982-163.686-10.874-165.726-23.008l-.01-1.01c1.841-12.173,74.106-22.085,165.733-23.068q-7.422-.081-15-.082c-63,0-118.474,4.212-150.83,10.6l-1.3-164.715c32.138,9.766,86.95,16.2,149.61,16.2q7.579,0,15-.126C192.777,87.4,120.73,71.721,120.73,52.6S192.777,17.814,285.5,16.276q-7.423-.123-15-.126c-99.84,0-179.77,16.32-179.77,36.45l3.21,406.8c0,20.13,81.94,36.45,181.78,36.45q7.577,0,15-.126C197.8,494.187,123.94,478.512,123.94,459.4Z"/><path fill="#1ae5be" d="M146.274 239.763a5.931 5.931 0 00.772-.05c6-.77 12.457-1.491 19.208-2.143a6 6 0 00-1.153-11.944c-6.876.664-13.465 1.4-19.584 2.185a6 6 0 00.757 11.952zM107.948 246.962a6.022 6.022 0 001.683-.241 181.646 181.646 0 0118.41-4.135 6 6 0 00-2.112-11.812 193.255 193.255 0 00-19.658 4.427 6 6 0 001.677 11.761zM185.117 235.96c.146 0 .294 0 .442-.016 6.253-.456 12.766-.865 19.36-1.218a6 6 0 00-.64-11.983c-6.671.357-13.263.771-19.592 1.233a6 6 0 00.43 11.984zM152.451 268.241a6 6 0 00-5.189-6.714c-6.906-.884-13.3-1.848-19.01-2.863a6 6 0 10-2.1 11.814c5.9 1.05 12.489 2.043 19.588 2.952a6.062 6.062 0 00.769.049A6 6 0 00152.451 268.241zM113.925 261.981a6 6 0 00-4.094-7.432c-8.339-2.415-10.983-4.331-11.691-4.978l-11.891 1.313c.254 8.343 10.952 12.5 20.244 15.191a5.995 5.995 0 007.432-4.094zM224.089 233.859c.074 0 .149 0 .223 0 6.361-.233 12.893-.422 19.414-.562a6 6 0 10-.256-12c-6.583.141-13.176.331-19.6.567a6 6 0 00.216 12zM417.7 242.533a184.531 184.531 0 0118.427 4.105 6 6 0 103.328-11.529 196.585 196.585 0 00-19.656-4.392 6 6 0 00-2.1 11.816zM340.813 234.709c6.592.351 13.106.758 19.362 1.212.147.011.294.016.44.016a6 6 0 00.427-11.985c-6.332-.459-12.923-.871-19.591-1.226a6 6 0 00-.638 11.983zM302.006 233.287c6.51.138 13.042.325 19.414.557.074 0 .148 0 .222 0a6 6 0 00.214-12c-6.433-.234-13.026-.423-19.6-.562a6 6 0 10-.253 12zM379.48 237.54c6.748.649 13.211 1.366 19.21 2.133a6.07 6.07 0 00.768.049 6 6 0 00.753-11.952c-6.122-.783-12.711-1.514-19.583-2.175a6 6 0 00-1.148 11.945zM417.914 258.642c-5.7 1.017-12.1 1.983-19.008 2.87a6 6 0 00.757 11.951 6.117 6.117 0 00.771-.049c7.1-.912 13.694-1.907 19.587-2.958a6 6 0 00-2.107-11.814zM347.343 272.163a6.007 6.007 0 00-6.311-5.672c-6.323.338-12.848.63-19.393.869a6 6 0 00.215 12c.073 0 .148 0 .222 0 6.613-.241 13.2-.537 19.6-.878A6 6 0 00347.343 272.163zM379.7 263.651c-6.149.593-12.644 1.14-19.3 1.624a6 6 0 00.428 11.985c.146 0 .294-.006.442-.016 6.755-.492 13.344-1.046 19.587-1.648a6 6 0 10-1.153-11.945zM447.846 249.625c-.787.691-3.486 2.555-11.519 4.892a6 6 0 103.352 11.522c9.368-2.725 20.122-6.941 20.122-15.433 0-.188-.006-.375-.018-.562zM263.109 233.019h.043c6.431-.045 12.994-.045 19.428 0h.041a6 6 0 00.04-12c-6.489-.044-13.107-.043-19.593 0a6 6 0 00.041 12zM243.946 267.923a6 6 0 00-.256 12c6.439.137 13.032.229 19.6.275h.042a6 6 0 00.041-12C256.862 268.15 250.327 268.059 243.946 267.923zM302.224 267.92c-6.381.136-12.917.228-19.425.274a6 6 0 00.041 12h.043c6.565-.047 13.159-.139 19.6-.277a6 6 0 10-.256-12zM205.138 266.5a6 6 0 00-.639 11.983c6.362.339 12.954.634 19.6.876.074 0 .148 0 .222 0a6 6 0 00.215-12C217.958 267.125 211.433 266.833 205.138 266.5zM191.326 271.7a6 6 0 00-5.549-6.419c-6.668-.484-13.163-1.029-19.306-1.621a6 6 0 10-1.15 11.944c6.235.6 12.825 1.155 19.587 1.646.148.011.3.016.441.016A6 6 0 00191.326 271.7zM55.5 91.586a6 6 0 00-6 6v30a6 6 0 1012 0v-30A6 6 0 0055.5 91.586zM55.5 331.586a6 6 0 00-6 6v30a6 6 0 0012 0v-30A6 6 0 0055.5 331.586zM55.5 211.586a6 6 0 00-6 6v30a6 6 0 0012 0v-30A6 6 0 0055.5 211.586zM55.5 391.586a6 6 0 00-6 6v30a6 6 0 0012 0v-30A6 6 0 0055.5 391.586zM55.5 271.586a6 6 0 00-6 6v30a6 6 0 0012 0v-30A6 6 0 0055.5 271.586zM55.5 151.586a6 6 0 00-6 6v30a6 6 0 0012 0v-30A6 6 0 0055.5 151.586z"/><path fill="#0635c9" d="M84.726,52.651,87.945,459.4c0,13.458,19.06,23.814,58.271,31.662,34.781,6.961,80.774,10.794,129.506,10.794,48.674,0,94.492-3.834,129.015-10.8,38.869-7.838,57.763-18.194,57.763-31.737L457.281,52.527h0c-.072-13.428-18.965-23.76-57.759-31.583C365,13.982,319.178,10.148,270.5,10.148c-48.616,0-94.26,3.835-128.525,10.8C103.453,28.775,84.725,39.13,84.725,52.6c0,.016,0,.031,0,.047ZM402.365,479.293c-33.765,6.809-78.741,10.559-126.643,10.559-47.965,0-93.122-3.75-127.151-10.561-39.891-7.983-48.626-17.068-48.626-19.942L96.858,69.355c9.434,5.76,24.413,10.7,45.121,14.907,34.265,6.963,79.909,10.8,128.525,10.8,48.674,0,94.492-3.834,129.015-10.8,21.229-4.281,36.485-9.315,45.973-15.195L450.5,459.4C450.5,462.23,441.853,471.33,402.365,479.293Zm-258-446.587c33.5-6.809,78.3-10.558,126.135-10.558,47.9,0,92.877,3.75,126.643,10.559,39.487,7.963,48.135,17.063,48.135,19.9s-8.648,11.934-48.135,19.9C363.381,79.31,318.4,83.06,270.5,83.06c-47.837,0-92.633-3.749-126.135-10.558-39.077-7.94-47.64-17.053-47.643-19.9v0C96.728,49.76,105.29,40.647,144.369,32.706Z"/></svg>