<svg xmlns="http://www.w3.org/2000/svg" data-name="Layer 1" viewBox="0 0 512 512"><polygon fill="#d4e1f4" points="92.37 121.364 62.37 95.45 62.37 402.51 92.02 428.531 92.37 121.364"/><path fill="#1ae5be" d="M387.967 470a6 6 0 00-12 0v20a6 6 0 0012 0zM381.967 376a6 6 0 006-6V350a6 6 0 00-12 0v20A6 6 0 00381.967 376zM381.967 456a6 6 0 006-6V430a6 6 0 00-12 0v20A6 6 0 00381.967 456zM381.967 416a6 6 0 006-6V390a6 6 0 00-12 0v20A6 6 0 00381.967 416zM381.967 256a6 6 0 006-6V230a6 6 0 00-12 0v20A6 6 0 00381.967 256zM381.967 216a6 6 0 006-6V190a6 6 0 00-12 0v20A6 6 0 00381.967 216zM381.967 336a6 6 0 006-6V310a6 6 0 00-12 0v20A6 6 0 00381.967 336zM381.967 296a6 6 0 006-6V270a6 6 0 00-12 0v20A6 6 0 00381.967 296zM168.9 213.469a6 6 0 006-6v-20a6 6 0 00-12 0v20A6 6 0 00168.9 213.469zM168.9 453.469a6 6 0 006-6v-20a6 6 0 00-12 0v20A6 6 0 00168.9 453.469zM168.9 253.469a6 6 0 006-6v-20a6 6 0 00-12 0v20A6 6 0 00168.9 253.469zM168.9 373.469a6 6 0 006-6v-20a6 6 0 00-12 0v20A6 6 0 00168.9 373.469zM168.9 493.469a6 6 0 006-6v-20a6 6 0 00-12 0v20A6 6 0 00168.9 493.469zM168.9 413.469a6 6 0 006-6v-20a6 6 0 00-12 0v20A6 6 0 00168.9 413.469zM168.9 293.469a6 6 0 006-6v-20a6 6 0 00-12 0v20A6 6 0 00168.9 293.469zM168.9 333.469a6 6 0 006-6v-20a6 6 0 00-12 0v20A6 6 0 00168.9 333.469zM23.5 152.829a6 6 0 006-6v-30a6 6 0 00-12 0v30A6 6 0 0023.5 152.829zM23.5 332.829a6 6 0 006-6v-30a6 6 0 00-12 0v30A6 6 0 0023.5 332.829zM23.5 392.829a6 6 0 006-6v-30a6 6 0 00-12 0v30A6 6 0 0023.5 392.829zM23.5 212.829a6 6 0 006-6v-30a6 6 0 00-12 0v30A6 6 0 0023.5 212.829zM23.5 272.829a6 6 0 006-6v-30a6 6 0 00-12 0v30A6 6 0 0023.5 272.829z"/><path fill="#0635c9" d="M58.41,407.019,164.943,500.51A6,6,0,0,0,168.9,502H381.967a6,6,0,0,0,3.957-1.49l106.534-93.491a6,6,0,0,0,2.042-4.51V95.445h-.008c0-.071.007-.143,0-.215a6,6,0,0,0-2.409-4.594L385.554,11.19A6,6,0,0,0,381.967,10H168.9a6,6,0,0,0-3.587,1.19L58.781,90.636a6,6,0,0,0-2.409,4.594c0,.072,0,.144,0,.215h-.008V402.509A6,6,0,0,0,58.41,407.019ZM379.708,490H171.16L68.368,399.792V108.557l96.611,83.453a6,6,0,0,0,3.922,1.459H381.967a6,6,0,0,0,3.922-1.459L482.5,108.557V399.792ZM170.892,22H379.976l98.948,73.789-99.19,85.68h-208.6L71.944,95.789Z"/></svg>