<svg xmlns="http://www.w3.org/2000/svg" data-name="Layer 1" viewBox="0 0 512 512"><polygon fill="#d4e1f4" points="262.65 496 262.65 460.575 74.424 199.673 73.729 199.536 262.65 46.329 262.65 16 43.65 193.6 262.65 496"/><path fill="#1ae5be" d="M262.654 90a6 6 0 00-6 6v20a6 6 0 0012 0V96A6 6 0 00262.654 90zM262.654 50a6 6 0 00-6 6V76a6 6 0 0012 0V56A6 6 0 00262.654 50zM262.654 130a6 6 0 00-6 6v20a6 6 0 0012 0V136A6 6 0 00262.654 130zM262.654 210a6 6 0 00-6 6v20a6 6 0 0012 0V216A6 6 0 00262.654 210zM262.654 170a6 6 0 00-6 6v20a6 6 0 0012 0V176A6 6 0 00262.654 170zM262.654 330a6 6 0 00-6 6v20a6 6 0 0012 0V336A6 6 0 00262.654 330zM262.654 410a6 6 0 00-6 6v20a6 6 0 0012 0V416A6 6 0 00262.654 410zM262.654 370a6 6 0 00-6 6v20a6 6 0 0012 0V376A6 6 0 00262.654 370zM262.654 450a6 6 0 00-6 6v20a6 6 0 0012 0V456A6 6 0 00262.654 450zM256.654 16V36a6 6 0 0012 0V16zM262.654 290a6 6 0 00-6 6v20a6 6 0 0012 0V296A6 6 0 00262.654 290zM262.654 250a6 6 0 00-6 6v20a6 6 0 0012 0V256A6 6 0 00262.654 250zM396.836 216.337a6.058 6.058 0 001.168-.114l19.622-3.872a6 6 0 10-2.323-11.773l-19.622 3.872a6 6 0 001.155 11.887zM454.546 192.834l-19.622 3.872a6 6 0 001.156 11.887 6.073 6.073 0 001.168-.114l19.621-3.872a6 6 0 10-2.323-11.773zM297.573 223.811l-19.621 3.872a6 6 0 102.323 11.773l19.621-3.872a6 6 0 10-2.323-11.773zM383.107 213.047a6 6 0 00-7.047-4.725l-19.622 3.872a6 6 0 102.323 11.774l19.622-3.872A6 6 0 00383.107 213.047zM336.816 216.066L317.2 219.938a6 6 0 102.323 11.774l19.622-3.872a6 6 0 00-2.324-11.774zM70.007 296.023a6 6 0 10-9.779 6.954l17.385 24.449a6 6 0 009.78-6.954zM174.321 442.715a6 6 0 10-9.779 6.954l17.385 24.449a6 6 0 009.78-6.954zM129.77 400.771l17.386 24.449a6 6 0 109.779-6.954l-17.386-24.449a6 6 0 00-9.779 6.954zM42.842 278.528a6 6 0 109.779-6.954L35.235 247.125a6 6 0 00-9.779 6.955zM122.164 369.369L104.778 344.92A6 6 0 0095 351.875l17.385 24.448a6 6 0 109.78-6.954zM143.222 220.72l19.622 3.872a6 6 0 102.323-11.773l-19.622-3.872a6 6 0 10-2.323 11.773zM204.41 220.563l-19.621-3.872a6 6 0 10-2.324 11.773l19.622 3.872a6 6 0 102.323-11.773zM103.979 212.975l19.622 3.872a6 6 0 002.323-11.773L106.3 201.2a6 6 0 00-2.323 11.773zM86.681 197.33l-19.622-3.872a6 6 0 10-2.323 11.772L84.357 209.1a6.065 6.065 0 001.168.114 6 6 0 001.156-11.887zM243.653 228.307l-19.621-3.872a6 6 0 00-2.324 11.773l19.622 3.873a6 6 0 002.323-11.774z"/><path fill="#0635c9" d="M262.654,502a6,6,0,0,0,4.86-2.48l219-302.4a6,6,0,0,0-1.08-8.18l-219-177.6a6,6,0,0,0-7.559,0l-219,177.6a6,6,0,0,0-1.08,8.18l219,302.4A6,6,0,0,0,262.654,502Zm0-478.275L473.462,194.682,262.654,485.771,51.846,194.682Z"/></svg>