<svg xmlns="http://www.w3.org/2000/svg" data-name="Layer 1" viewBox="0 0 512 512"><path fill="#d4e1f4" d="M150.18,118.79,113.02,147.5A183.826,183.826,0,0,0,58.86,278.01V463.5h30V278.01A183.826,183.826,0,0,1,143.02,147.5l37.16-28.71a184,184,0,0,1,78.675-24.735c-4.98-.4-10.012-.615-15.1-.615A184.291,184.291,0,0,0,150.18,118.79Z"/><path fill="#1ae5be" d="M16 409.094a6 6 0 00-6 6v30a6 6 0 0012 0v-30A6 6 0 0016 409.094zM16 289.094a6 6 0 00-6 6v30a6 6 0 0012 0v-30A6 6 0 0016 289.094zM16 349.094a6 6 0 00-6 6v30a6 6 0 0012 0v-30A6 6 0 0016 349.094zM16 229.094a6 6 0 00-6 6v30a6 6 0 0012 0v-30A6 6 0 0016 229.094zM221.494 381.1a6 6 0 00-6 6v20a6 6 0 0012 0v-20A6 6 0 00221.494 381.1zM221.494 341.1a6 6 0 00-6 6v20a6 6 0 0012 0v-20A6 6 0 00221.494 341.1zM221.494 221.1a6 6 0 00-6 6v20a6 6 0 0012 0v-20A6 6 0 00221.494 221.1zM221.494 301.1a6 6 0 00-6 6v20a6 6 0 0012 0v-20A6 6 0 00221.494 301.1zM221.494 183.1a6 6 0 00-6 6v18a6 6 0 0012 0v-18A6 6 0 00221.494 183.1zM221.494 261.1a6 6 0 00-6 6v20a6 6 0 0012 0v-20A6 6 0 00221.494 261.1z"/><path fill="#0635c9" d="M300.454,42.5a201.252,201.252,0,0,0-154.347,71.825c-55.8,33.3-93.243,94.206-93.243,163.687V463.5a6,6,0,0,0,6,6h81.611A5.964,5.964,0,0,0,144,468.351l0,0,81.02-58.808-7.049-9.711-71.495,51.895V277.768c0-51.5,41.978-93.4,93.576-93.4s93.576,41.9,93.576,93.4V463.5a6,6,0,0,0,6,6h89.034a5.987,5.987,0,0,0,4.59-2.139h0l67.339-80.042A6,6,0,0,0,502,383.458V243.7C502,132.759,411.587,42.5,300.454,42.5Zm122.207,415H345.627V277.768c0-58.119-47.361-105.4-105.576-105.4s-105.576,47.283-105.576,105.4V457.5H64.864V278.012c0-98.466,80.254-178.573,178.9-178.573s178.9,80.107,178.9,178.573ZM490,381.27l-55.339,65.779V278.012c0-105.082-85.637-190.573-190.9-190.573A190.3,190.3,0,0,0,178.4,98.949,189.217,189.217,0,0,1,300.454,54.5C404.97,54.5,490,139.375,490,243.7Z"/></svg>