<svg xmlns="http://www.w3.org/2000/svg" data-name="Layer 1" viewBox="0 0 512 512"><polygon fill="#d4e1f4" points="16 463.5 56 463.5 472.783 101.649 494 48.5 16 463.5"/><path fill="#1ae5be" d="M377.587 340.122a6 6 0 00-7.8 3.347l-7.415 18.575a6 6 0 1011.145 4.449l7.415-18.575A6 6 0 00377.587 340.122zM392.417 302.972a6 6 0 00-7.8 3.348L377.205 324.9a6 6 0 1011.145 4.449l7.415-18.575A6 6 0 00392.417 302.972zM347.926 414.42a6 6 0 00-7.8 3.348l-7.415 18.574a6 6 0 1011.144 4.45l7.415-18.575A6 6 0 00347.926 414.42zM362.757 377.271a6 6 0 00-7.8 3.347l-7.415 18.575a6 6 0 1011.144 4.449l7.415-18.575A6 6 0 00362.757 377.271zM333.1 451.569a6 6 0 00-7.8 3.348l-2.538 6.359 11.144 4.448 2.538-6.358A6 6 0 00333.1 451.569zM407.247 265.823a6 6 0 00-7.8 3.348l-7.415 18.574a6 6 0 1011.145 4.449L410.6 273.62A6 6 0 00407.247 265.823zM466.568 117.226a6 6 0 00-7.8 3.348l-7.415 18.574A6 6 0 10462.5 143.6l7.415-18.575A6 6 0 00466.568 117.226zM481.4 80.077a6 6 0 00-7.8 3.348L466.187 102a6 6 0 1011.144 4.449l7.415-18.574A6 6 0 00481.4 80.077zM488.432 46.275L481.017 64.85A6 6 0 10492.161 69.3l7.415-18.574zM436.907 191.524a6 6 0 00-7.8 3.348L421.7 213.447A6 6 0 10432.84 217.9l7.415-18.575A6 6 0 00436.907 191.524zM422.077 228.674a6 6 0 00-7.8 3.347L406.865 250.6a6 6 0 1011.145 4.449l7.415-18.574A6 6 0 00422.077 228.674zM451.738 154.375a6 6 0 00-7.8 3.348L436.525 176.3a6 6 0 1011.145 4.449l7.416-18.575A6 6 0 00451.738 154.375zM353.581 115a5.977 5.977 0 003.938-1.476l22.622-19.7a6 6 0 10-7.881-9.048l-22.622 19.7A6 6 0 00353.581 115zM146.038 281.805l-22.622 19.7a6 6 0 107.881 9.049l22.622-19.7a6 6 0 00-7.881-9.049zM281.771 163.583l-22.622 19.7a6 6 0 107.881 9.049l22.622-19.7a6 6 0 00-7.881-9.049zM100.793 321.213l-22.622 19.7a6 6 0 107.881 9.048l22.622-19.7a6 6 0 10-7.881-9.049zM236.526 202.991l-22.622 19.7a6 6 0 107.881 9.049l22.622-19.7a6 6 0 10-7.881-9.049zM335.48 124.759a6 6 0 00-8.464-.583l-22.622 19.7a6 6 0 007.88 9.049l22.622-19.7A6 6 0 00335.48 124.759zM398.826 75.589a5.976 5.976 0 003.938-1.475l22.622-19.7a6 6 0 00-7.881-9.049l-22.622 19.7a6 6 0 003.943 10.524zM55.549 360.62l-22.622 19.7a6 6 0 007.881 9.049l22.622-19.7a6 6 0 10-7.881-9.049zM191.282 242.4L168.66 262.1a6 6 0 107.881 9.048l22.622-19.7a6 6 0 10-7.881-9.049z"/><path fill="#0635c9" d="M330.9,468.925l167.666-79.2A6,6,0,0,0,502,384.262l-2-335.8a6,6,0,0,0-9.934-4.495l-478,415A6,6,0,0,0,16,469.5H328.333A5.994,5.994,0,0,0,330.9,468.925ZM32.062,457.5,488.082,61.587l1.9,318.92L326.987,457.5Z"/></svg>