<svg xmlns="http://www.w3.org/2000/svg" data-name="Layer 1" viewBox="0 0 512 512"><polygon fill="#d4e1f4" points="16 417.75 46 426.154 46 314.108 16 305.6 16 417.75"/><path fill="#d4e1f4" d="M234.911,66.383c-4.885-.251-9.9-.383-15.011-.383-48.42,0-87.67,11.72-87.67,26.18V284.924l30,7.26V111.889c15.415,4.022,35.587,6.461,57.67,6.461,5.111,0,10.126-.132,15.011-.383-41.278-2.123-72.681-12.862-72.681-25.787S193.633,68.506,234.911,66.383Z"/><path fill="#1ae5be" d="M110.836 342.2a6 6 0 0012 0v-8h-12zM116.836 393.281a6 6 0 00-6 6v18.36a6 6 0 0012 0v-18.36A6 6 0 00116.836 393.281zM116.836 356.562a6 6 0 00-6 6v18.36a6 6 0 0012 0v-18.36A6 6 0 00116.836 356.562zM116.836 431a6 6 0 00-6 6v9h12v-9A6 6 0 00116.836 431zM394.863 329.242L387.2 311.43a6 6 0 00-11.023 4.744l7.667 17.812a6 6 0 0011.022-4.744zM379.53 293.617l-7.666-17.811a6 6 0 00-11.023 4.744l7.667 17.811a6 6 0 0011.022-4.744zM364.2 257.993l-7.666-17.812a6 6 0 00-11.023 4.744l7.667 17.812a6 6 0 1011.022-4.744zM417.863 382.679a6 6 0 10-11.022 4.744l7.666 17.812a6 6 0 0011.023-4.744zM410.2 364.866l-7.667-17.812a6 6 0 10-11.022 4.744l7.666 17.812a6 6 0 0011.023-4.744zM210.8 241.4c-6.384-.2-12.686-.616-18.729-1.234a6 6 0 00-1.222 11.938c6.324.646 12.909 1.081 19.574 1.291l.192 0a6 6 0 00.185-12zM173.6 237.493a133.839 133.839 0 01-17.771-4.576 6 6 0 00-3.876 11.357 145.848 145.848 0 0019.38 5 6 6 0 102.267-11.784zM284.592 232.837a136.016 136.016 0 01-17.782 4.578 6 6 0 102.276 11.782 147.841 147.841 0 0019.369-5 6 6 0 10-3.863-11.361zM248.338 240.111c-6.052.629-12.353 1.056-18.729 1.27a6 6 0 00.2 12l.2 0c6.655-.223 13.238-.669 19.568-1.328a6 6 0 10-1.241-11.935zM97.56 96.326a6 6 0 00-6 6v30a6 6 0 0012 0v-30A6 6 0 0097.56 96.326zM97.56 156.326a6 6 0 00-6 6v30a6 6 0 0012 0v-30A6 6 0 0097.56 156.326zM97.56 216.326a6 6 0 00-6 6v30a6 6 0 1012 0v-30A6 6 0 0097.56 216.326z"/><path fill="#0635c9" d="M343.407,209.09a6,6,0,0,0-9.39,1.816l-19.755,40.128V92.176c0-12.651-16.491-20.177-30.325-24.263C266.661,62.81,243.918,60,219.9,60c-23.983,0-46.609,2.812-63.71,7.918C142.519,72,126.226,79.52,126.226,92.176V277.3l-7.978-1.931a5.988,5.988,0,0,0-2.823,0l-100.836,24.4A6,6,0,0,0,10,305.487c0,.04.008.078.008.117H10V417.752a6,6,0,0,0,4.381,5.777l100.837,28.248a5.985,5.985,0,0,0,3.237,0l100.837-28.248a6,6,0,0,0,4.381-5.777v-.2h9.137a5.984,5.984,0,0,0,5.672,6.364l192.848,9.938c.1,0,.206.007.309.007a6,6,0,0,0,4.521-2.055l64.361-73.782a6,6,0,0,0-.514-8.41ZM219.9,72c22.9,0,44.437,2.636,60.64,7.421,15.938,4.708,21.724,10.207,21.724,12.755s-5.786,8.048-21.724,12.755c-16.2,4.786-37.739,7.422-60.64,7.422-52.845,0-81.672-13.329-81.672-20.177S167.053,72,219.9,72ZM116.836,287.377l77.226,18.687-77.226,21.9-77.225-21.9Zm0,152.392L22,413.2V313.543l93.2,26.434a6.02,6.02,0,0,0,3.275,0l93.2-26.434V413.2ZM223.664,305.6c0-.039.009-.077.008-.117a6,6,0,0,0-4.588-5.715l-80.858-19.566V108.9a79.692,79.692,0,0,0,17.962,7.535c17.1,5.106,39.727,7.918,63.71,7.918,24.02,0,46.763-2.811,64.039-7.913a80.826,80.826,0,0,0,18.325-7.63v166.6L238.194,405.551H223.673V305.6ZM429.035,421.718,248.2,412.4,341.286,223.31l146.3,131.284Z"/></svg>