<svg xmlns="http://www.w3.org/2000/svg" data-name="Layer 1" viewBox="0 0 512 512"><path fill="#d4e1f4" d="M250.686,31.887A52.634,52.634,0,0,1,276.03,25h-.42C153.89,25,55.22,123.48,55.22,244.96s98.67,219.95,220.39,219.95h.42a52.611,52.611,0,0,1-25.315-6.88C155.556,433.682,85.22,347.516,85.22,244.96S155.542,56.245,250.686,31.887Z"/><path fill="#1ae5be" d="M162.586 264.592c6.689 1.041 13.59 2 20.511 2.839a6.071 6.071 0 00.733.045 6 6 0 00.717-11.957c-6.789-.827-13.557-1.763-20.115-2.785a6 6 0 00-1.846 11.858zM465.239 231.188c-5.941 2.316-12.323 4.547-18.971 6.632a6 6 0 103.591 11.45c6.905-2.166 13.546-4.488 19.737-6.9a6 6 0 00-4.357-11.181zM225.033 259.207c-6.8-.421-13.619-.94-20.276-1.545a6 6 0 10-1.085 11.951c6.772.615 13.709 1.143 20.62 1.571.126.008.251.011.376.011a6 6 0 00.365-11.988zM265.7 260.618c-6.785-.056-13.63-.2-20.345-.434a6 6 0 00-.414 11.993c6.82.235 13.77.384 20.66.441h.05a6 6 0 00.049-12zM306.388 259.9c-6.707.294-13.55.5-20.339.622a6 6 0 00.1 12h.106c6.9-.12 13.844-.333 20.655-.631a6 6 0 10-.525-11.989zM81.9 244.926c6.273 2.254 12.954 4.417 19.858 6.429a6 6 0 103.358-11.52c-6.67-1.944-13.115-4.031-19.157-6.2A6 6 0 1081.9 244.926zM426.849 243.322c-6.328 1.617-12.962 3.15-19.717 4.558a6 6 0 102.448 11.748c6.93-1.444 13.74-3.019 20.24-4.679a6 6 0 10-2.971-11.627zM121.872 256.662c6.543 1.557 13.37 3.027 20.294 4.369a6 6 0 002.284-11.78c-6.759-1.311-13.42-2.745-19.8-4.263a6 6 0 10-2.779 11.674zM346.951 256.99c-6.63.67-13.446 1.257-20.256 1.744a6 6 0 00.422 11.985q.216 0 .435-.015c6.926-.5 13.859-1.094 20.6-1.775a6 6 0 10-1.206-11.939zM387.206 251.62c-6.521 1.1-13.275 2.111-20.074 3.015a6 6 0 00.783 11.948 6.167 6.167 0 00.8-.052c6.935-.922 13.827-1.957 20.484-3.077a6 6 0 10-1.991-11.834zM15.552 309.063a6 6 0 1011.742-2.475 246.682 246.682 0 01-4.316-28.942 6 6 0 00-11.953 1.062A258.962 258.962 0 0015.552 309.063zM76.531 419.644a6 6 0 00.857-8.442A248.692 248.692 0 0160.264 387.47 6 6 0 1050.135 393.9a260.368 260.368 0 0017.954 24.882 6 6 0 008.442.858zM43.255 369.891a6 6 0 002.817-8 245.969 245.969 0 01-11.044-27.081 6 6 0 00-11.362 3.86 257.892 257.892 0 0011.585 28.407 6 6 0 008 2.818zM172.832 489.413a6 6 0 00-3.081-7.907 247.437 247.437 0 01-26.057-13.343A6 6 0 00137.6 478.5a259.457 259.457 0 0027.325 13.993 6 6 0 007.906-3.081zM97.193 432.756a6 6 0 10-8.342 8.626 261.605 261.605 0 0023.276 20 6 6 0 107.27-9.547A249.559 249.559 0 0197.193 432.756zM492.007 218.6c-2.681 1.539-5.544 3.07-8.509 4.549a6 6 0 105.358 10.738c3.173-1.584 6.243-3.226 9.126-4.881a6 6 0 10-5.975-10.406zM53.178 232.6c2.95 1.52 6.07 3.027 9.273 4.478a6 6 0 004.953-10.93c-3.02-1.368-5.957-2.787-8.73-4.215a6 6 0 00-5.5 10.667z"/><path fill="#0635c9" d="M276.16 470.906h0zM502 244.955A224.255 224.255 0 00435.688 85.177 226.562 226.562 0 00276.165 19.014c-.164 0 .074-.01.03-.013.011 0 .012 0-.03 0A225.866 225.866 0 10502 244.955zM276.165 19c.016 0 .033 0 0 0C276.1 19.005 276.13 19 276.165 19zM124.012 396.24A213.959 213.959 0 01235.958 34.646C221.877 46.141 209.073 63.769 198.3 86.889c-19.724 42.321-30.588 98.457-30.588 158.066S178.573 360.7 198.3 403.022c10.776 23.119 23.58 40.748 37.661 52.242A212.975 212.975 0 01124.012 396.24zM276.723 458.9c-.23 0-.458.008-.687.009-24.849-.11-48.588-21.744-66.862-60.953-19-40.767-29.465-95.1-29.465-153s10.465-112.23 29.465-153c18.275-39.209 42.013-60.843 66.862-60.953.229 0 .457.007.687.008 24.736.287 48.355 21.9 66.554 60.945 19 40.767 29.464 95.1 29.464 153s-10.464 112.231-29.464 153C325.078 437 301.459 458.611 276.723 458.9zm40.117-3.924c13.943-11.5 26.627-29.022 37.314-51.951 19.724-42.321 30.587-98.457 30.587-158.067S373.878 129.21 354.154 86.889C343.467 63.96 330.783 46.438 316.84 34.938a213.972 213.972 0 010 420.035z"/></svg>