<svg xmlns="http://www.w3.org/2000/svg" data-name="Layer 1" viewBox="0 0 512 512"><path fill="#d4e1f4" d="M247.76,29.168c8-8.478,16.577-13.116,25.51-13.168h-.31c-88.53,0-161.11,97.18-168.01,220.7q-.54,9.555-.54,19.3c0,132.55,75.46,240,168.55,240h.31c-8.946-.052-17.539-4.7-25.545-13.2C181.767,450.237,134.41,361,134.41,256q0-9.75.54-19.3C140.343,140.155,185.862,59.7,247.76,29.168Z"/><path fill="#1ae5be" d="M429.323 234.014a6 6 0 106.85 9.853c2.926-2.034 5.738-4.155 8.359-6.3l-7.6-9.283C434.55 230.23 431.991 232.159 429.323 234.014zM187.267 264.817c-6.355-1.439-12.612-3.064-18.6-4.832a6 6 0 00-3.4 11.51c6.231 1.839 12.739 3.53 19.343 5.026a6 6 0 002.651-11.7zM413.185 243.749c-5.376 2.826-11.181 5.516-17.254 8a6 6 0 104.537 11.109c6.428-2.625 12.585-5.479 18.3-8.483a6 6 0 00-5.584-10.622zM225.263 271.178c-6.452-.728-12.878-1.623-19.1-2.66a6 6 0 00-1.975 11.836c6.429 1.072 13.067 2 19.73 2.748a6 6 0 101.344-11.924zM263.8 273.614c-6.44-.1-12.935-.354-19.305-.754a6 6 0 00-.75 11.977c6.556.411 13.24.672 19.867.775h.1a6 6 0 00.092-12zM340.654 267.488c-6.194 1.14-12.6 2.139-19.048 2.969a6 6 0 101.534 11.9c6.657-.858 13.281-1.89 19.686-3.07a6 6 0 10-2.172-11.8zM302.409 272.435c-6.335.493-12.824.842-19.29 1.039a6 6 0 00.179 12c.061 0 .124 0 .186 0 6.654-.2 13.334-.562 19.857-1.071a6 6 0 10-.932-11.962zM150.509 253.9c-6.13-2.317-12.025-4.84-17.521-7.5a6 6 0 00-5.228 10.8c5.817 2.816 12.044 5.482 18.507 7.924a6 6 0 004.242-11.225zM377.947 258.251c-5.934 1.893-12.151 3.643-18.477 5.2a6 6 0 102.87 11.652c6.587-1.623 13.065-3.447 19.254-5.421a6 6 0 00-3.647-11.432zM116.414 237.254c-2.76-1.743-5.422-3.555-7.912-5.385l-7.107 9.668c2.715 2 5.614 3.97 8.613 5.864a6 6 0 006.406-10.147zM134.148 447.161a6 6 0 10-9.722 7.033A241.055 241.055 0 00143.97 477.93a6 6 0 008.744-8.217A229.176 229.176 0 01134.148 447.161zM94.7 368.688c-3.052-9.184-5.767-18.722-8.07-28.347a6 6 0 10-11.67 2.791c2.382 9.959 5.192 19.831 8.353 29.342A6 6 0 0094.7 368.688zM75.939 318.234a6 6 0 005.014-6.845c-1.487-9.626-2.616-19.5-3.356-29.332a6 6 0 10-11.967.9c.764 10.147 1.93 20.33 3.464 30.264a5.988 5.988 0 006.845 5.013zM105.244 396.174a6 6 0 00-10.99 4.816 304.761 304.761 0 0013.653 27.377 6 6 0 1010.451-5.9A293.315 293.315 0 01105.244 396.174z"/><path fill="#0635c9" d="M397.045,82.846c-32.773-46.666-76.98-72.492-123.662-72.83-.132,0,.063-.012.023-.015.009,0,.009,0-.023,0-47.031,0-91.527,25.871-124.517,72.846C116.33,129.177,98.411,190.671,98.411,256s17.919,126.823,50.455,173.154C181.856,476.13,226.352,502,273.383,502c.032,0,.032,0,.023,0,.04,0-.155-.013-.023-.015,46.682-.338,90.889-26.163,123.662-72.83C429.581,382.823,447.5,321.329,447.5,256S429.581,129.177,397.045,82.846ZM273.383,10c.013,0,.026,0,0,0C273.331,10.005,273.357,10,273.383,10Zm0,491.992c.026,0,.013,0,0,0S273.331,502,273.383,502ZM110.411,256c0-114.047,56.972-209.283,132.094-229.864-11.423,12.567-21.712,32.248-30.221,58.3-15,45.916-23.26,106.847-23.26,171.569s8.261,125.653,23.26,171.569c8.509,26.047,18.8,45.728,30.221,58.295C167.383,465.283,110.411,370.048,110.411,256ZM273.786,489.985c-.168,0-.335.009-.5.009-17.826-.127-35.893-24.219-49.592-66.151C209.074,379.1,201.024,319.49,201.024,256s8.05-123.1,22.667-167.842c13.7-41.933,31.766-66.025,49.592-66.152.168,0,.335.008.5.009,17.755.322,35.731,24.381,49.373,66.142C337.775,132.9,345.825,192.509,345.825,256s-8.05,123.1-22.666,167.843C309.517,465.6,291.541,489.663,273.786,489.985Zm30.878-4.468c11.3-12.582,21.472-32.143,29.9-57.948,15-45.916,23.26-106.846,23.26-171.569s-8.261-125.653-23.26-171.569c-8.429-25.8-18.605-45.365-29.9-57.948C379.163,47.777,435.5,142.59,435.5,256S379.163,464.223,304.664,485.517Z"/></svg>