<svg xmlns="http://www.w3.org/2000/svg" data-name="Layer 1" viewBox="0 0 512 512"><path fill="#d4e1f4" d="M292.734,16.124q-7.423-.122-15-.124C176.51,16,95.47,32.58,95.47,53.02V458.98c0,20.44,81.04,37.02,182.26,37.02q7.578,0,15-.124c-94.11-1.543-167.264-17.476-167.264-36.9s73.154-35.354,167.264-36.9q-7.423-.122-15-.124c-63.909,0-119.763,6.607-152.264,16.624h0V73.417h0c32.5,10.017,88.355,16.624,152.264,16.624q7.578,0,15-.124c-94.11-1.542-167.264-17.467-167.264-36.9S198.624,17.667,292.734,16.124Z"/><path fill="#1ae5be" d="M186.388 420.98c-6.938.819-13.685 1.741-20.052 2.74a6 6 0 00.923 11.928 6.107 6.107 0 00.938-.073c6.216-.975 12.81-1.877 19.6-2.677a6 6 0 10-1.406-11.918zM347.375 418.621c-6.546-.529-13.314-.988-20.117-1.362a6 6 0 10-.658 11.982c6.7.368 13.363.82 19.806 1.341.165.014.328.02.491.02a6 6 0 00.478-11.981zM106.783 439.82c-10.822 5.492-16.309 11.938-16.309 19.159a6 6 0 0012 0c0-1.622 2.55-4.809 9.739-8.458a6 6 0 10-5.43-10.7zM266.934 416.031h-.079c-6.714.085-13.49.247-20.136.484a6 6 0 00.209 12c.072 0 .144 0 .217 0 6.555-.233 13.238-.394 19.863-.478a6 6 0 00-.074-12zM307.127 416.4c-6.644-.208-13.418-.342-20.136-.4h-.054a6 6 0 00-.053 12c6.629.059 13.314.193 19.87.4.063 0 .127 0 .19 0a6 6 0 00.183-12zM387.527 423.117c-6.379-.941-13.128-1.808-20.059-2.577a6 6 0 00-1.322 11.928c6.789.752 13.393 1.6 19.629 2.52a6 6 0 101.752-11.871zM447.188 437.794a6 6 0 00-4.755 11.018c9.71 4.191 12.431 7.6 13.151 8.872a6 6 0 0010.443-5.911C463.081 446.567 456.919 441.994 447.188 437.794zM427.442 431.113c-6.01-1.633-12.711-3.176-19.913-4.589a6 6 0 00-2.31 11.776c6.924 1.358 13.343 2.836 19.079 4.393a6 6 0 103.144-11.58zM226.591 417.47c-6.817.407-13.584.9-20.113 1.466a6 6 0 00.51 11.977c.174 0 .349-.007.525-.022 6.424-.556 13.084-1.041 19.794-1.443a6 6 0 00-.716-11.978zM146.348 427.354c-7.266 1.529-13.956 3.2-19.886 4.958a6 6 0 103.418 11.5c5.618-1.669 11.989-3.256 18.936-4.716a6 6 0 00-2.468-11.745zM51 105.06a6 6 0 00-6 6v30a6 6 0 0012 0v-30A6 6 0 0051 105.06zM51 285.06a6 6 0 00-6 6v30a6 6 0 0012 0v-30A6 6 0 0051 285.06zM51 405.06a6 6 0 00-6 6v25.8a6 6 0 0012 0v-25.8A6 6 0 0051 405.06zM51 225.06a6 6 0 00-6 6v30a6 6 0 0012 0v-30A6 6 0 0051 225.06zM51 165.06a6 6 0 00-6 6v30a6 6 0 0012 0v-30A6 6 0 0051 165.06zM51 345.06a6 6 0 00-6 6v30a6 6 0 0012 0v-30A6 6 0 0051 345.06z"/><path fill="#0635c9" d="M408.51,20.962C373.516,13.893,327.07,10,277.73,10c-49.28,0-95.548,3.894-130.281,10.964-39.011,7.941-57.975,18.428-57.975,32.058V458.979c0,13.629,18.964,24.116,57.975,32.057,34.733,7.07,81,10.964,130.281,10.964,49.34,0,95.786-3.894,130.78-10.962C447.867,483.087,467,472.6,467,458.979V53.022C467,39.4,447.867,28.913,408.51,20.962Zm-2.376,458.313C371.9,486.191,326.3,490,277.73,490c-48.5,0-93.918-3.808-127.887-10.723-39.68-8.077-48.369-17.391-48.369-20.3V69.8c9.535,5.909,24.793,10.973,45.975,15.285,34.733,7.07,81,10.964,130.281,10.964,49.34,0,95.786-3.893,130.78-10.962,21.449-4.334,36.878-9.422,46.49-15.359V458.979C455,461.878,446.221,471.178,406.134,479.275Zm0-405.956C371.9,80.235,326.3,84.044,277.73,84.044c-48.5,0-93.918-3.808-127.887-10.723-39.68-8.077-48.369-17.392-48.369-20.3s8.689-12.222,48.369-20.3C183.812,25.808,229.229,22,277.73,22c48.567,0,94.167,3.809,128.4,10.725,40.087,8.1,48.866,17.4,48.866,20.3S446.221,65.221,406.134,73.319Z"/></svg>