<svg xmlns="http://www.w3.org/2000/svg" data-name="Layer 1" viewBox="0 0 512 512"><path fill="#d4e1f4" d="M268.57,473.02c5.042,0,10.04-.162,15-.45C173.39,466.164,84.623,389.508,72.555,282.135h0A225.2,225.2,0,0,1,71.14,256.96V240.45c0-.87.03-1.73.1-2.6v-.01c1.917-24.965,31.293-47.23,76.765-62.673,3.059,12.36,8.128,23.826,15.8,33.463C187.563,238.5,238.635,251,285.328,247.6c-37.129-2.687-72.806-15.431-91.528-38.968-9.34-11.74-14.83-26.19-17.52-41.67a147.746,147.746,0,0,1-2.07-25.27A124.266,124.266,0,0,1,283.57,18.4a125.878,125.878,0,0,0-15-.9A124.275,124.275,0,0,0,144.21,141.69a147.746,147.746,0,0,0,2.07,25.27h-.01C84.99,182.05,43.53,208.02,41.24,237.84v.01c-.07.87-.1,1.73-.1,2.6v16.51C41.14,382.4,142.96,473.02,268.57,473.02Z"/><path fill="#1ae5be" d="M263.006 331.2h.563c6.545 0 13.155-.107 19.647-.318a6 6 0 10-.391-11.994c-6.362.207-12.841.312-19.256.312h-.548a6 6 0 00-.015 12zM182.415 325.541c6.562.951 13.316 1.8 20.077 2.51a6 6 0 101.262-11.933c-6.608-.7-13.208-1.524-19.618-2.453a6 6 0 00-1.721 11.876zM222.636 329.807c6.645.459 13.436.809 20.181 1.041.071 0 .14 0 .21 0a6 6 0 00.2-12c-6.607-.227-13.257-.57-19.766-1.02a6 6 0 10-.827 11.972zM142.593 318c6.415 1.526 13.091 2.945 19.841 4.217a6 6 0 002.222-11.792c-6.565-1.238-13.054-2.616-19.286-4.1A6 6 0 00142.593 318zM49.764 275.214a6 6 0 008.616-8.353 59.645 59.645 0 01-10.538-14.74 6 6 0 10-10.7 5.429A71.469 71.469 0 0049.764 275.214zM103.59 306.344c6.125 2.27 12.638 4.432 19.358 6.427a6 6 0 003.414-11.5c-6.466-1.919-12.725-4-18.6-6.175a6 6 0 10-4.17 11.252zM420.442 307.1a5.987 5.987 0 002.061-.367c6.681-2.444 13.059-5.073 18.956-7.813a6 6 0 00-5.057-10.883c-5.593 2.6-11.657 5.1-18.022 7.427a6 6 0 002.062 11.636zM468.668 267.788c-.341.305-.688.609-1.037.912a108.728 108.728 0 01-14.2 10.264 6 6 0 106.283 10.224 120.745 120.745 0 0015.772-11.417q.6-.521 1.187-1.044a6 6 0 00-8.006-8.939zM382.091 318.418a6.051 6.051 0 001.378-.16c6.751-1.587 13.364-3.328 19.658-5.174a6 6 0 10-3.377-11.514c-6.086 1.784-12.487 3.469-19.027 5.006a6 6 0 001.368 11.842zM302.993 329.9c.135 0 .272 0 .408-.014 6.765-.454 13.543-1.031 20.146-1.715a6 6 0 00-1.236-11.937c-6.46.669-13.093 1.234-19.714 1.68a6 6 0 00.4 11.986zM490.915 232.026a6 6 0 00-6 6 31.635 31.635 0 01-4.6 15.987 6 6 0 1010.373 6.033 43.462 43.462 0 006.222-22.02A6 6 0 00490.915 232.026zM342.773 325.759a6.052 6.052 0 00.856-.061c6.759-.965 13.483-2.067 19.987-3.276a6 6 0 10-2.193-11.8c-6.339 1.178-12.9 2.252-19.489 3.193a6 6 0 00.839 11.941zM87.219 299.014a6 6 0 002.56-11.429A167.773 167.773 0 0174.8 279.631q-.993-.6-1.949-1.2a6 6 0 10-6.419 10.137q1.065.677 2.177 1.346a180.266 180.266 0 0016.053 8.528A5.964 5.964 0 0087.219 299.014zM21.8 341.415A6 6 0 1010.2 344.457a184.359 184.359 0 0010.388 29.171 6 6 0 1010.932-4.948A172.369 172.369 0 0121.8 341.415zM157.478 484.893a241.446 241.446 0 01-26.44-12.524 6 6 0 00-5.779 10.517 253.591 253.591 0 0027.76 13.148 6 6 0 004.459-11.141zM45.493 394.163a6 6 0 00-10.068 6.53 229.3 229.3 0 0018.482 24.618 6 6 0 009.1-7.824A217.312 217.312 0 0145.493 394.163zM102.748 467.668a6 6 0 003.487-10.886 250.386 250.386 0 01-22.813-18.363 6 6 0 10-8.063 8.888 262.209 262.209 0 0023.912 19.246A5.967 5.967 0 00102.748 467.668z"/><path fill="#0635c9" d="M397.406,162.715a143.246,143.246,0,0,0,1.525-21.023C398.931,69.9,340.451,11.5,268.569,11.5S138.208,69.9,138.208,141.692a157.208,157.208,0,0,0,1.333,20.8c-29.925,7.822-55.039,18.319-72.868,30.494-20.63,14.088-31.534,30.5-31.534,47.466v16.513c0,61.67,24.335,118.3,68.523,159.46,43.34,40.37,101.905,62.6,164.907,62.6s121.568-22.232,164.908-62.6C477.665,375.261,502,318.631,502,256.961V240.448C502,208.028,463.968,179.843,397.406,162.715ZM268.569,23.5c65.265,0,118.362,53.021,118.362,118.192,0,25.522-6.932,48.291-20.046,65.847-15.454,20.689-51.282,33.94-93.5,34.582-45.891.692-86.067-13.567-104.886-37.225-11.964-15.04-18.288-36.9-18.288-63.2C150.208,76.521,203.305,23.5,268.569,23.5ZM490,256.961c0,58.3-22.979,111.814-64.7,150.679-41.111,38.294-96.773,59.383-156.729,59.383S152.952,445.934,111.841,407.64c-41.724-38.865-64.7-92.377-64.7-150.679V240.448c0-25.591,36.053-50.681,94.547-66.12,3.4,14.889,9.249,27.767,17.419,38.038,20.612,25.91,62.973,41.779,111.115,41.779,1.109,0,2.229-.009,3.344-.026,45.86-.7,85.3-15.794,102.934-39.4a110.722,110.722,0,0,0,18.589-40.211c28.543,7.417,52.216,17.189,68.727,28.4C485.457,217.613,490,231.438,490,240.448Z"/></svg>