<svg xmlns="http://www.w3.org/2000/svg" data-name="Layer 1" viewBox="0 0 512 512"><path fill="#d4e1f4" d="M287.248,16.162Q279.859,16,272.24,16C199.48,16,141.5,27.17,141.5,40.94L65.41,236.91l.82,1.96c.01,0,.01,0,.01.01l91.99,218.67a30.69,30.69,0,0,0,18.89,19.37c4.809,1.7,10.71,3.656,17.512,5.647a30.815,30.815,0,0,1-6.4-11.017L96.5,253.486c-.539-.178-1.055-.356-1.582-.534.659.223,1.311.445,1.989.668a8.6,8.6,0,0,1-.662-.74c0-.01,0-.01-.01-.01l-.82-1.96,75.4-194.191h0c23.88,5.592,60.291,9.161,101.431,9.161q7.614,0,15.008-.162C221.677,64.308,171.5,53.759,171.5,40.94S221.677,17.573,287.248,16.162Z"/><path fill="#1ae5be" d="M440.418 246.958c-5.841 1.847-12.212 3.663-18.936 5.4a6 6 0 103 11.62c6.931-1.788 13.51-3.664 19.555-5.576a6 6 0 00-3.617-11.442zM65.782 247.5a141 141 0 0019.276 8.133 6 6 0 103.98-11.32 131.28 131.28 0 01-17.586-7.39 6 6 0 00-5.67 10.577zM477 228.914a6 6 0 00-5.825 4.558c-.8.776-3.719 3.155-12.479 6.872a6 6 0 104.688 11.047C477.316 245.479 483 240.706 483 234.914A6 6 0 00477 228.914zM165.761 262.6c-6.575-1.05-13.14-2.207-19.509-3.441a6 6 0 00-2.281 11.782c6.5 1.257 13.193 2.438 19.9 3.508a6 6 0 101.891-11.849zM126.9 255.043c-6.652-1.545-13.088-3.187-19.13-4.879a6 6 0 00-3.237 11.555c6.213 1.74 12.825 3.427 19.651 5.013a6 6 0 102.716-11.689zM284.427 270.559l-.149 0c-5.159.125-10.359.188-15.463.188-1.444-.012-2.906 0-4.353-.015h-.042a6 6 0 00-.04 12c1.475.01 2.961 0 4.434.015 5.2 0 10.5-.064 15.755-.192a6 6 0 00-.142-12zM244.644 270.3c-6.555-.244-13.217-.593-19.8-1.036a6 6 0 10-.807 11.972c6.7.453 13.485.807 20.159 1.056.076 0 .153 0 .228 0a6 6 0 00.22-12zM363.255 263.875c-6.477.945-13.09 1.807-19.657 2.56a6 6 0 101.367 11.921c6.688-.767 13.425-1.644 20.022-2.606a6 6 0 10-1.732-11.875zM205.084 267.632c-6.572-.641-13.2-1.387-19.7-2.219a6 6 0 00-1.524 11.9c6.622.848 13.372 1.608 20.063 2.26a5.85 5.85 0 00.589.029 6 6 0 00.575-11.972zM323.867 268.4c-6.549.555-13.2 1.018-19.78 1.377a6 6 0 00.322 11.991c.11 0 .221 0 .332-.008 6.7-.367 13.471-.838 20.138-1.4a6 6 0 10-1.012-11.957zM402.244 256.891c-6.294 1.352-12.831 2.636-19.429 3.816a6 6 0 001.049 11.907 6.112 6.112 0 001.063-.094c6.734-1.2 13.409-2.515 19.839-3.9a6 6 0 10-2.522-11.732zM70.562 340.573L58.883 312.94a6 6 0 00-11.053 4.672l11.679 27.633a6 6 0 1011.053-4.672zM105.6 423.475a6 6 0 10-11.053 4.671l11.679 27.634a6 6 0 1011.052-4.672zM93.918 395.841L82.24 368.207a6 6 0 10-11.052 4.672l11.677 27.634a6 6 0 0011.053-4.672zM47.205 285.307L35.526 257.673a6 6 0 10-11.052 4.672l11.678 27.634a6 6 0 0011.053-4.672z"/><path fill="#0635c9" d="M409.9,39.557c-1.187-9.72-15.049-16.784-43.378-22.147C341.278,12.631,307.8,10,272.242,10c-35.5,0-68.8,2.632-93.786,7.412-28.027,5.363-41.726,12.437-42.869,22.18L59.816,234.742a6,6,0,0,0,.063,4.5l92.727,220.419a36.955,36.955,0,0,0,22.506,22.919c20.967,7.428,62.054,19.409,108.843,19.407,29.915,0,62.166-4.9,92.964-19.019a36.516,36.516,0,0,0,19.317-21.8L487.549,239.2a6,6,0,0,0,.025-4.5ZM184.074,28.578C207.932,24.336,239.243,22,272.242,22c33.016,0,64.469,2.332,88.568,6.566,26.8,4.708,35.553,10.24,37.049,12.375-1.5,2.136-10.254,7.667-37.049,12.376-24.1,4.234-55.552,6.566-88.568,6.566-33,0-64.31-2.336-88.168-6.578C157.533,48.586,149,43.045,147.611,40.941,149,38.838,157.533,33.3,184.074,28.578Zm200.979,428.23c-.06.145-.115.293-.162.442a24.5,24.5,0,0,1-12.974,14.808c-74.97,34.375-159.8,10.9-192.8-.79a24.876,24.876,0,0,1-15.194-15.6c-.05-.152-.107-.3-.169-.451l-91.876-218.4L143.294,52.894c6.91,4.6,18.5,8.389,35.162,11.577,24.982,4.779,58.289,7.412,93.786,7.412,35.555,0,69.036-2.632,94.278-7.41,16.98-3.214,28.757-7.041,35.731-11.683l73.276,184.086Z"/></svg>