<svg xmlns="http://www.w3.org/2000/svg" data-name="Layer 1" viewBox="0 0 512 512"><path fill="#d4e1f4" d="M64.92,426.98l75.5-149.7c25.618,7.851,71.21,13.114,123.417,13.114q7.62,0,15.06-.145c-73.457-1.435-130.4-13.329-130.4-27.605a5.784,5.784,0,0,1,.57-2.47c6.132-13.1,60.6-23.435,129.727-24.756q-7.385-.141-14.957-.144c-42.227,0-80.122,3.342-106.626,8.714L245.908,68.126c-14.715-1.758-24.928-5.6-24.928-10.056L34.92,426.98c0,21,103.22,38.02,230.54,38.02q7.561,0,15-.082C160.133,463.643,64.92,447.148,64.92,426.98Z"/><path fill="#1ae5be" d="M167.108 242.106a6 6 0 005.926 5.11 6.119 6.119 0 00.9-.067c6.251-.939 12.97-1.785 19.972-2.513a6 6 0 10-1.242-11.936c-7.182.747-14.083 1.616-20.514 2.582A6 6 0 00167.108 242.106zM158.832 243.581a6 6 0 00-7.156-4.56A147.527 147.527 0 00131.23 244.9a6 6 0 104.293 11.206 135.643 135.643 0 0118.748-5.368A6 6 0 00158.832 243.581zM213.607 242.925c.138 0 .278 0 .417-.014 6.564-.451 13.359-.814 20.195-1.079a6 6 0 00-.465-11.991c-6.955.269-13.87.639-20.552 1.1a6 6 0 00.405 11.986zM374.885 250.93a140.673 140.673 0 0118.791 5.332 6 6 0 104.23-11.229 152.275 152.275 0 00-20.431-5.82 6 6 0 10-2.59 11.717zM234.419 283.815a6 6 0 00-.475 11.99c6.742.268 13.66.445 20.56.528h.073a6 6 0 00.071-12C247.857 284.252 241.051 284.078 234.419 283.815zM151.875 286.466c6.173 1.385 13.06 2.66 20.468 3.791a6 6 0 101.81-11.862c-7.135-1.09-13.747-2.314-19.651-3.638a6 6 0 00-2.627 11.709zM294.929 241.9c6.838.281 13.632.659 20.192 1.125.145.01.288.015.431.015a6 6 0 00.419-11.985c-6.679-.474-13.592-.86-20.549-1.146a6 6 0 00-.493 11.991zM254.379 241.321h.073c6.644-.078 13.48-.074 20.246.02h.085a6 6 0 00.081-12c-6.864-.095-13.807-.1-20.554-.02a6 6 0 00.069 12zM335.239 244.788c7 .741 13.723 1.6 19.973 2.544a6.068 6.068 0 00.906.069 6 6 0 00.891-11.933c-6.426-.974-13.325-1.853-20.506-2.614a6 6 0 10-1.264 11.934zM274.975 296.31h.087c6.9-.1 13.82-.289 20.557-.568a6 6 0 10-.5-11.99c-6.63.274-13.436.462-20.231.559a6 6 0 00.083 12zM375.072 274.683c-5.9 1.31-12.52 2.525-19.667 3.61a6 6 0 00.894 11.934 6.108 6.108 0 00.909-.069c7.412-1.127 14.3-2.392 20.464-3.761a6 6 0 10-2.6-11.714zM342.033 286.179a6.009 6.009 0 00-6.6-5.332c-6.446.685-13.213 1.281-20.117 1.774a6 6 0 00.421 11.985c.143 0 .287 0 .433-.016 7.041-.5 13.948-1.111 20.53-1.811A6 6 0 00342.033 286.179zM131.451 280.547a6 6 0 004.305-11.2c-9.627-3.7-11.12-6.5-11.255-6.8a6 6 0 00-5.993-5.771c-.049 0-.1 0-.149 0a6 6 0 00-5.852 6.143C112.677 269.948 118.874 275.714 131.451 280.547zM214.23 282.712c-6.9-.484-13.668-1.076-20.111-1.759a6 6 0 10-1.265 11.932c6.583.7 13.492 1.3 20.537 1.8.142.01.285.015.425.015a6 6 0 00.414-11.986zM417.041 262.87q0-.212-.006-.42a6 6 0 00-12 .253c-.2.393-1.9 3.1-11.193 6.625a6 6 0 104.258 11.219C402.781 278.772 417 273.377 417.041 262.87zM59.162 285.754a6 6 0 00-8.057 2.662l-13.488 26.8a6 6 0 1010.719 5.4l13.488-26.8A6 6 0 0059.162 285.754zM121.209 162.489a6 6 0 008.057-2.661l13.488-26.8a6 6 0 00-10.719-5.4l-13.488 26.8A6 6 0 00121.209 162.489zM67.256 269.676a6 6 0 008.056-2.661l13.489-26.8a6 6 0 00-10.719-5.4l-13.488 26.8A6 6 0 0067.256 269.676zM32.186 339.348a6 6 0 00-8.057 2.661l-13.488 26.8a6 6 0 1010.718 5.4l13.489-26.8A6 6 0 0032.186 339.348zM113.115 178.567a6 6 0 00-8.056 2.662l-13.489 26.8a6 6 0 1010.719 5.4l13.488-26.8A6 6 0 00113.115 178.567zM148.186 108.9a5.995 5.995 0 008.056-2.662l13.488-26.8a6 6 0 10-10.718-5.4l-13.489 26.8A6 6 0 00148.186 108.9z"/><path fill="#0635c9" d="M312.739,56.264C309.82,41.764,271.815,41,263.953,41s-45.91.765-48.791,15.289L29.562,424.276a6.01,6.01,0,0,0-.642,2.7c0,8.947,7.52,22.081,72.547,32.806C145.323,467.017,203.563,471,265.46,471s120.137-3.983,163.992-11.216c21.584-3.56,38.611-7.737,50.61-12.416C494.824,441.612,502,434.942,502,426.978a6.014,6.014,0,0,0-.66-2.737ZM263.953,53c17.837,0,29.941,2.814,34.988,5.073-5.047,2.259-17.151,5.073-34.988,5.073s-29.94-2.814-34.987-5.073C234.013,55.814,246.116,53,263.953,53ZM427.5,447.944C384.27,455.073,326.723,459,265.46,459s-118.81-3.927-162.04-11.056c-50.95-8.4-60.449-17.626-62.146-20.24L222.588,68.214C234.8,74.708,258,75.146,263.953,75.146s29.217-.439,41.413-6.957L489.637,427.717C487.915,430.351,478.358,439.556,427.5,447.944Z"/></svg>