<svg xmlns="http://www.w3.org/2000/svg" data-name="Layer 1" viewBox="0 0 512 512"><polygon fill="#d4e1f4" points="37.69 95.2 119.37 240.87 51.22 395.15 79.737 408.081 149.431 250.813 149.427 250.812 68.392 106.29 67.925 106.122 298.887 30.349 265.91 19.5 37.69 95.2"/><path fill="#1ae5be" d="M182.276 269a6 6 0 001.883-11.7l-18.988-6.28a6 6 0 00-3.768 11.392l18.989 6.281A5.979 5.979 0 00182.276 269zM315.258 277.913a5.99 5.99 0 001.863-.3l19.012-6.209A6 6 0 10332.408 260L313.4 266.208a6 6 0 001.862 11.7zM353.281 265.5a6 6 0 001.864-.3l19.011-6.209a6 6 0 00-3.724-11.407L351.42 253.79a6 6 0 001.861 11.705zM144.3 256.436a6 6 0 001.883-11.7l-18.989-6.281a6 6 0 10-3.767 11.393l18.988 6.28A5.987 5.987 0 00144.3 256.436zM260.111 282.423l-18.988-6.281a6 6 0 00-3.768 11.393l18.989 6.28a6 6 0 103.767-11.392zM391.305 253.077a5.99 5.99 0 001.863-.3l19.012-6.209a6 6 0 10-3.725-11.407l-19.012 6.209a6 6 0 001.862 11.7zM218.366 281.254a6 6 0 003.77-11.393l-18.988-6.281a6 6 0 10-3.769 11.393zM301.95 276.258a6 6 0 00-7.565-3.841l-19.012 6.209a6 6 0 103.725 11.408l19.011-6.209A6 6 0 00301.95 276.258zM56.317 282.846a6 6 0 00-7.946 2.977L35.949 313.13A6 6 0 1046.873 318.1L59.3 290.792A6 6 0 0056.317 282.846zM31.474 337.46a6 6 0 00-7.947 2.978L11.1 367.745a6 6 0 1010.923 4.969l12.424-27.308A6 6 0 0031.474 337.46zM81.162 228.231a6 6 0 00-7.946 2.977L60.794 258.516a6 6 0 1010.924 4.968L84.14 236.177A6 6 0 0081.162 228.231z"/><path fill="#0635c9" d="M497.875,89.5,267.782,13.8a5.986,5.986,0,0,0-3.763,0L35.8,89.509a5.965,5.965,0,0,0-3.331,8.621l-.014.008,80.217,143.047L45.735,392.726a6,6,0,0,0,3.011,7.889L263.43,497.964a6,6,0,0,0,4.937.009l216.558-97.35a6,6,0,0,0,3.028-7.9L421.018,241.185,501.233,98.138l-.014-.008a5.968,5.968,0,0,0-3.344-8.626ZM265.915,25.819,477.536,95.445l-211.62,75.814L56.019,95.445ZM124.86,243.291a6,6,0,0,0-.255-5.359L50.8,106.319l209.106,75.529V483.191L59.112,392.14Zm283.969,0,65.739,148.831-202.661,91.1V181.86l211.012-75.6L409.084,237.932A6,6,0,0,0,408.829,243.291Z"/></svg>