<svg xmlns="http://www.w3.org/2000/svg" data-name="Layer 1" viewBox="0 0 512 512"><path fill="#d4e1f4" d="M96.94,459.19l71.223-163.324c20.977,6.605,54.77,10.894,92.9,10.894q7.626,0,15-.225c-56.561-1.7-100.24-12.9-100.24-26.455a6.666,6.666,0,0,1,.6-2.73c5.4-12.313,46.924-22.147,99.64-23.734q-7.365-.222-15-.226c-29.789,0-56.935,2.617-77.388,6.913L275.326,50.13,260.21,16,66.94,459.19c0,20.33,87.21,36.81,194.78,36.81q7.57,0,15-.108C176.158,494.445,96.94,478.566,96.94,459.19Z"/><path fill="#1ae5be" d="M157.839 261.641c-11.959 5-18.022 11.208-18.022 18.53 0 .016 0 .079 0 .094a5.959 5.959 0 006 5.859h.049a6.04 6.04 0 005.953-6.047c0-.614 1.808-3.664 10.655-7.367a6 6 0 10-4.633-11.069zM340.824 266.967a119.574 119.574 0 0118.583 5.643A6 6 0 10364 261.522a131.184 131.184 0 00-20.489-6.251 6 6 0 00-2.682 11.7zM198.911 251.537c-7.415 1.08-14.341 2.359-20.584 3.8a6 6 0 102.7 11.693c5.923-1.368 12.522-2.586 19.613-3.618a6 6 0 00-1.73-11.875zM181.21 293.167a118.959 118.959 0 01-18.574-5.655 6 6 0 10-4.6 11.082 130.71 130.71 0 0020.488 6.268 6 6 0 002.689-11.7zM301.232 261.08c6.948.608 13.667 1.378 19.971 2.291a6.084 6.084 0 00.867.063 6 6 0 00.852-11.939c-6.526-.945-13.472-1.742-20.645-2.369a6 6 0 10-1.045 11.954zM260.917 259.392h.145c6.728 0 13.472.137 20.045.408.084 0 .168 0 .251 0a6 6 0 00.243-12c-6.737-.277-13.647-.418-20.539-.418h-.145a6 6 0 100 12zM376.116 273.893a6 6 0 00-5.81 6.184c0 .618-1.822 3.684-10.735 7.4a6 6 0 104.618 11.076c12.021-5.012 18.117-11.228 18.117-18.429 0-.141 0-.281-.006-.422A5.989 5.989 0 00376.116 273.893zM348.2 297.645a6 6 0 00-7.194-4.5c-5.921 1.364-12.521 2.579-19.616 3.611a6 6 0 00.856 11.938 6.139 6.139 0 00.871-.063c7.419-1.079 14.344-2.355 20.584-3.793A6 6 0 00348.2 297.645zM301.422 299.057c-6.508.572-13.278 1-20.124 1.29a6 6 0 00.244 11.994c.084 0 .169 0 .253 0 7.029-.291 13.986-.737 20.677-1.325a6 6 0 10-1.05-11.954zM261.062 300.762c-6.77 0-13.545-.138-20.139-.411a6 6 0 10-.5 11.99c6.758.28 13.7.421 20.635.421h.05a6 6 0 00-.05-12zM220.8 299.065c-6.943-.608-13.661-1.38-19.968-2.3a6 6 0 10-1.723 11.876c6.531.947 13.477 1.746 20.644 2.374.178.015.355.023.531.023a6 6 0 00.516-11.978zM220.075 261.129c.176 0 .354-.007.533-.023 6.506-.573 13.277-1.008 20.123-1.294a6 6 0 10-.5-11.989c-7.03.293-13.986.74-20.676 1.329a6 6 0 00.52 11.977zM197.866 63.636a5.995 5.995 0 007.906-3.081l3.563-8.11a6 6 0 00-10.986-4.826l-3.563 8.11A6 6 0 00197.866 63.636zM55.5 393.748a6 6 0 005.5-3.589l12.065-27.467a6 6 0 10-10.986-4.826L50.007 385.333a6 6 0 005.49 8.415zM149.606 173.5a6 6 0 007.907-3.08l12.065-27.467a6 6 0 00-10.987-4.826L146.526 165.6A6 6 0 00149.606 173.5zM173.736 118.569a5.993 5.993 0 007.907-3.08l12.065-27.467A6 6 0 10182.721 83.2l-12.065 27.467A6 6 0 00173.736 118.569zM101.347 283.372a6 6 0 007.906-3.081l12.065-27.467A6 6 0 00110.331 248L98.266 275.465A6 6 0 00101.347 283.372zM125.477 228.437a6 6 0 007.906-3.08l12.065-27.467a6 6 0 00-10.987-4.826L122.4 220.531A6 6 0 00125.477 228.437zM77.217 338.305a6 6 0 007.906-3.08l12.065-27.467A6 6 0 1086.2 302.932L74.137 330.4A6 6 0 0077.217 338.305z"/><path fill="#0635c9" d="M261.721,502c52.39,0,101.7-3.866,138.844-10.886,41.676-7.877,61.935-18.32,61.935-31.926a6,6,0,0,0-.514-2.43L265.694,13.57A6,6,0,0,0,260.208,10h-.017a6,6,0,0,0-5.483,3.6L61.442,456.79a6.013,6.013,0,0,0-.5,2.4c0,13.606,20.26,24.049,61.935,31.926C160.022,498.134,209.332,502,261.721,502ZM73.189,459.874,260.25,30.913l190,428.973c-1.266,2.5-8.729,11.275-51.911,19.436C361.9,486.208,313.386,490,261.721,490s-100.182-3.792-136.615-10.678C81.854,471.148,74.437,462.355,73.189,459.874Z"/></svg>