<svg xmlns="http://www.w3.org/2000/svg" data-name="Layer 1" viewBox="0 0 512 512"><polygon fill="#d4e1f4" points="54.49 406.2 84.49 414.599 84.49 395.8 84.49 104.455 54.49 97.39 54.49 406.2"/><rect width="12" height="318.619" x="269.243" y="149.381" fill="#1ae5be"/><path fill="#1ae5be" d="M16 104.438a6 6 0 00-6 6v30a6 6 0 0012 0v-30A6 6 0 0016 104.438zM16 164.438a6 6 0 00-6 6v30a6 6 0 0012 0v-30A6 6 0 0016 164.438zM16 344.438a6 6 0 00-6 6v30a6 6 0 0012 0v-30A6 6 0 0016 344.438zM16 224.438a6 6 0 00-6 6v30a6 6 0 0012 0v-30A6 6 0 0016 224.438zM16 284.438a6 6 0 00-6 6v30a6 6 0 0012 0v-30A6 6 0 0016 284.438zM202.247 349.4L173.9 359.225a6 6 0 103.93 11.337l28.345-9.826a6 6 0 00-3.93-11.338zM145.557 369.051l-28.345 9.826a6 6 0 103.93 11.338l28.344-9.826a6 6 0 00-3.929-11.338zM258.938 329.747l-28.345 9.825a6 6 0 103.929 11.338l28.345-9.825a6 6 0 00-3.929-11.338zM88.866 388.7l-28.345 9.826a6 6 0 103.93 11.338L92.8 400.041a6 6 0 10-3.93-11.338zM489.629 392.866l-28.346-9.826a6 6 0 10-3.929 11.338L485.7 404.2a6 6 0 103.93-11.338zM319.558 333.909l-28.346-9.826a6 6 0 00-3.93 11.338l28.346 9.826a6 6 0 003.93-11.338zM432.938 373.214l-28.345-9.826a6 6 0 10-3.93 11.338l28.346 9.826a6 6 0 103.929-11.338zM376.248 353.562L347.9 343.735a6 6 0 00-3.929 11.338l28.345 9.826a6 6 0 103.93-11.337z"/><path fill="#0635c9" d="M501.994,86.557a6,6,0,0,0-4.851-5.637L276.386,38.11a6.006,6.006,0,0,0-2.553.058L53.076,91.553a6,6,0,0,0-4.588,5.832h0V406.2a6,6,0,0,0,4.383,5.779l220.757,61.8a6,6,0,0,0,3.234,0l220.757-61.8A6,6,0,0,0,502,406.2V86.811h-.017C501.983,86.725,502,86.643,501.994,86.557ZM275.384,50.139,470.133,87.906,275.1,143.185,80.331,97.308Zm-.141,411.631L60.486,401.647V104.963l213.381,50.259a6.02,6.02,0,0,0,3.012-.068L490,94.747v306.9Z"/></svg>