<svg xmlns="http://www.w3.org/2000/svg" data-name="Layer 1" viewBox="0 0 512 512"><rect width="30" height="152.96" x="163.02" y="67.14" fill="#d4e1f4"/><rect width="30" height="122.94" x="23" y="220.1" fill="#d4e1f4"/><rect width="30" height="152.96" x="163.02" y="343.04" fill="#d4e1f4"/><path fill="#1ae5be" d="M298.749 200.261l-14.87 13.374a6 6 0 108.024 8.922l14.87-13.374a6 6 0 10-8.024-8.922zM328.489 173.511l-14.87 13.375a6 6 0 008.025 8.922l14.87-13.375a6 6 0 00-8.025-8.922zM358.229 146.762l-14.87 13.375a6 6 0 008.025 8.922l14.87-13.375a6 6 0 10-8.025-8.922zM126.073 30.607a6 6 0 00-6 6v20a6 6 0 0012 0v-20A6 6 0 00126.073 30.607zM126.073 70.607a6 6 0 00-6 6v20a6 6 0 1012 0v-20A6 6 0 00126.073 70.607zM126.073 110.607a6 6 0 00-6 6V132.34a6 6 0 1012 0V116.607A6 6 0 00126.073 110.607z"/><path fill="#0635c9" d="M489.244,150.138l-120.522-4.907V17.037a5.969,5.969,0,0,0-5.949-5.987v-.013L241.872,10a6.053,6.053,0,0,0-3.317.967l-78.8,51.138,0,0a5.989,5.989,0,0,0-2.736,5.03v83H73a6,6,0,0,0-4.718,2.293L18.037,216.39l.158.124A5.963,5.963,0,0,0,17,220.1V343.043a6,6,0,0,0,6,6H157.02V496a6,6,0,0,0,6,6H285.891a5.973,5.973,0,0,0,4.088-1.617l0,0,83.6-77.964a6,6,0,0,0,1.908-4.388V349.043h63.264a5.978,5.978,0,0,0,4.44-1.974l0,0,50.245-55.4a6,6,0,0,0,1.555-4.03v-131.5A6,6,0,0,0,489.244,150.138Zm-12.208,11.513-41.2,52.445H291.891V70.389l64.831-42.276V150.992a6,6,0,0,0,5.756,6ZM243.574,22.015l99.224.852-58.69,38.271H183.288ZM75.917,162.133h81.1V214.1H35.1Zm287.574,253.3-71.6,66.772V349.043h71.6Zm69.264-78.385H285.891a6,6,0,0,0-6,6V490H169.02V343.043a6,6,0,0,0-6-6H29V226.1H163.02a6,6,0,0,0,6-6V73.138H279.891V220.1a6,6,0,0,0,6,6H432.755Zm12-9.547V222.171L483,173.484V285.322Z"/></svg>