<svg xmlns="http://www.w3.org/2000/svg" data-name="Layer 1" viewBox="0 0 512 512"><rect width="30" height="122.54" x="22.83" y="278.96" fill="#d4e1f4"/><path fill="#1ae5be" d="M88.832 275.958h-20a6 6 0 100 12h20a6 6 0 000-12zM128.832 275.958h-20a6 6 0 000 12h20a6 6 0 000-12zM248.832 275.958h-20a6 6 0 000 12h20a6 6 0 000-12zM408.832 275.958h-20a6 6 0 000 12h20a6 6 0 000-12zM288.832 275.958h-20a6 6 0 000 12h20a6 6 0 000-12zM208.832 275.958h-20a6 6 0 000 12h20a6 6 0 000-12zM48.832 275.958h-20a6 6 0 100 12h20a6 6 0 000-12zM448.832 275.958h-20a6 6 0 000 12h20a6 6 0 000-12zM168.832 275.958h-20a6 6 0 000 12h20a6 6 0 000-12zM328.832 275.958h-20a6 6 0 000 12h20a6 6 0 000-12zM488.832 275.958h-20a6 6 0 000 12h20a6 6 0 000-12zM368.832 275.958h-20a6 6 0 000 12h20a6 6 0 000-12zM123.82 184.666a5.969 5.969 0 002.63-.611L153.4 170.883a6 6 0 10-5.268-10.781l-26.954 13.172a6 6 0 002.639 11.392zM102.252 189.2a6 6 0 00-8.025-2.757L67.273 199.617A6 6 0 1072.542 210.4L99.5 197.227A6 6 0 00102.252 189.2zM263.975 110.172a6 6 0 00-8.025-2.756L229 120.587a6 6 0 105.269 10.782L261.219 118.2A6 6 0 00263.975 110.172zM48.344 215.545a6 6 0 00-8.025-2.756L13.366 225.96a6 6 0 105.268 10.782L45.588 223.57A6 6 0 0048.344 215.545zM210.067 136.515a6 6 0 00-8.025-2.756l-26.954 13.172a6 6 0 105.269 10.781l26.954-13.172A6 6 0 00210.067 136.515z"/><path fill="#0635c9" d="M499.9,274.4,323.286,123.038a6,6,0,0,0-6.632-.788L20.1,273.614a6,6,0,0,0-3.272,5.344V401.5a6,6,0,0,0,6,6H496a6,6,0,0,0,6-6V278.958A6,6,0,0,0,499.9,274.4ZM490,395.5H28.832V282.632l289.7-147.867L490,281.718Z"/></svg>