<svg xmlns="http://www.w3.org/2000/svg" data-name="Layer 1" viewBox="0 0 512 512"><polygon fill="#d4e1f4" points="55.249 169.955 16 173.69 16 288.13 46 301.877 46 192.84 136 250.29 114.29 333.17 107.67 358.45 139.152 347.611 145.29 324.17 167 241.29 55.249 169.955"/><polygon fill="#d4e1f4" points="137.67 442.99 137.67 348.121 107.67 358.45 107.67 452.5 137.67 442.99"/><path fill="#1ae5be" d="M256 379.475a6 6 0 00-6 6v20h12v-20A6 6 0 00256 379.475zM256 339.475a6 6 0 00-6 6v20a6 6 0 0012 0v-20A6 6 0 00256 339.475zM250 325.475a6 6 0 0012 0V307.383H250zM110.9 125.3L81.1 128.76a6 6 0 00.684 11.96 6.118 6.118 0 00.7-.04l29.8-3.457A6 6 0 10110.9 125.3zM51.3 132.216l-29.8 3.457a6 6 0 00.684 11.96 6.1 6.1 0 00.7-.04l29.8-3.457a6 6 0 00-1.383-11.92zM164.776 119.054L140.7 121.847a6 6 0 00.684 11.96 6.118 6.118 0 00.7-.04l24.078-2.793a6 6 0 00-1.383-11.92z"/><path fill="#0635c9" d="M501.833,172.282a6,6,0,0,0-5.265-4.566l-163.2-15.53-72.572-96.3a6,6,0,0,0-9.584,0l-72.572,96.3-163.2,15.53a5.908,5.908,0,0,0-5.414,5.973H10V288.134a6,6,0,0,0,3.5,5.455l93.711,42.934-5.344,20.407a5.98,5.98,0,0,0-.191,1.52h-.005V452.5a6,6,0,0,0,7.813,5.719l146.5-46.446,144.6,46.439a6,6,0,0,0,7.833-5.59l1.907-94.05h0a5.977,5.977,0,0,0-.193-1.642l-5.207-19.881,87.4-43.545a6,6,0,0,0,3.315-5.037l6.354-114.446h-.008A5.976,5.976,0,0,0,501.833,172.282Zm-319.429-8.4a6,6,0,0,0,4.223-2.361L256,69.469l69.373,92.051a6,6,0,0,0,4.223,2.361l148.483,14.13-105.308,67.22a6,6,0,0,0-2.575,6.578l25.489,97.32L257.953,301.71a6,6,0,0,0-3.906,0L116.315,349.129l25.489-97.32a6,6,0,0,0-2.575-6.578L33.921,178.011ZM22,284.284V184.637L129.089,253,110.3,324.738ZM257.834,399.763a5.991,5.991,0,0,0-3.647-.007L113.672,444.3V362.73l142.328-49L398.241,362.7l-1.655,81.624ZM401.819,325.19,382.911,253l106.449-67.95-5.511,99.273Z"/></svg>