<svg xmlns="http://www.w3.org/2000/svg" data-name="Layer 1" viewBox="0 0 512 512"><polygon fill="#d4e1f4" points="36.54 381.74 60.904 400.41 259.206 124.987 282.92 45.92 282.9 45.8 36.54 381.74"/><path fill="#1ae5be" d="M209.416 294.341a6 6 0 00-7.471 4.023L196.2 317.521a6 6 0 1011.494 3.447l5.745-19.156A6 6 0 00209.416 294.341zM197.925 332.654a6 6 0 00-7.471 4.024l-5.746 19.157a6 6 0 1011.5 3.447l5.745-19.157A6 6 0 00197.925 332.654zM163.451 447.6a6 6 0 00-7.471 4.023l-5.745 19.157 11.494 3.448 5.746-19.158A6 6 0 00163.451 447.6zM174.942 409.282a6 6 0 00-7.47 4.024l-5.746 19.157a6 6 0 1011.494 3.447l5.746-19.157A6 6 0 00174.942 409.282zM186.434 370.968a6 6 0 00-7.471 4.023l-5.746 19.157a6 6 0 1011.494 3.448l5.746-19.158A6 6 0 00186.434 370.968zM266.872 102.771a6 6 0 00-7.471 4.023l-5.746 19.158a6 6 0 1011.494 3.447l5.746-19.157A6 6 0 00266.872 102.771zM220.907 256.026a6 6 0 00-7.471 4.024l-5.745 19.157a6 6 0 1011.494 3.447L224.93 263.5A6 6 0 00220.907 256.026zM255.38 141.085a6 6 0 00-7.47 4.023l-5.746 19.158a6 6 0 1011.494 3.447l5.746-19.157A6 6 0 00255.38 141.085zM232.4 217.713a6 6 0 00-7.471 4.023l-5.745 19.157a6 6 0 1011.494 3.447l5.745-19.156A6 6 0 00232.4 217.713zM243.889 179.4a6 6 0 00-7.471 4.023l-5.745 19.157a6 6 0 1011.494 3.447l5.746-19.156A6 6 0 00243.889 179.4zM331.212 245.335a6 6 0 004.386-7.264l-4.8-19.416a6 6 0 10-11.649 2.879l4.8 19.416a5.991 5.991 0 007.264 4.385zM321.615 206.5A6 6 0 00326 199.239l-4.8-19.415a6 6 0 10-11.65 2.879l4.8 19.415a5.991 5.991 0 007.264 4.385zM292.823 90.009a6 6 0 004.385-7.264l-4.8-19.416a6 6 0 00-11.734 2.444 5.989 5.989 0 00-9.784 2.707l-5.746 19.158a6 6 0 1011.5 3.447l5.629-18.769 3.289 13.308a5.991 5.991 0 007.264 4.385zM302.42 128.84a6 6 0 004.386-7.264l-4.8-19.415a6 6 0 10-11.649 2.879l4.8 19.415a5.991 5.991 0 007.264 4.385zM312.018 167.672a6 6 0 004.385-7.264l-4.8-19.416a6 6 0 10-11.649 2.879l4.8 19.416a5.991 5.991 0 007.264 4.385zM350.407 323a6 6 0 004.385-7.265l-4.8-19.416a6 6 0 00-11.65 2.879l4.8 19.416A6 6 0 00350.407 323zM379.2 439.493a6 6 0 004.385-7.264l-4.8-19.416a6 6 0 00-11.65 2.879l4.8 19.415a6 6 0 007.264 4.386zM381.119 447.259a6 6 0 00-4.386 7.264l4.8 19.416 11.65-2.878-4.8-19.416A6 6 0 00381.119 447.259zM340.811 284.166A6 6 0 00345.2 276.9l-4.8-19.415a6 6 0 10-11.649 2.879l4.8 19.415a5.993 5.993 0 007.265 4.385zM360 361.829a6 6 0 004.386-7.264l-4.8-19.415a6 6 0 00-11.65 2.879l4.8 19.415A5.991 5.991 0 00360 361.829zM369.6 400.662a6 6 0 004.385-7.265l-4.8-19.416a6 6 0 10-11.649 2.879l4.8 19.416a6 6 0 007.265 4.386zM75.469 238.713a6 6 0 00-8.427.994l-18.584 23.55a6 6 0 109.42 7.433l18.584-23.55A6 6 0 0075.469 238.713zM112.638 191.612a6 6 0 00-8.427.993L85.627 216.156a6 6 0 009.42 7.434l18.584-23.551A6 6 0 00112.638 191.612zM186.975 97.41a6 6 0 00-8.427.993l-18.585 23.551a6 6 0 009.42 7.434l18.585-23.551A6 6 0 00186.975 97.41zM149.806 144.511a6 6 0 00-8.427.993L122.8 169.055a6 6 0 009.42 7.434L150.8 152.938A6 6 0 00149.806 144.511zM38.3 285.814a6 6 0 00-8.427.994L11.29 310.358a6 6 0 009.42 7.434l18.584-23.551A6 6 0 0038.3 285.814zM224.143 50.309a6 6 0 00-8.427.993L197.132 74.853a6 6 0 009.42 7.434l18.584-23.551A6 6 0 00224.143 50.309z"/><path fill="#0635c9" d="M288.07,42.443a6,6,0,0,0-9.906-.336L31.7,378.193A6,6,0,0,0,32.89,386.5l118.443,90.759a6,6,0,0,0,3.649,1.237H388.4a6,6,0,0,0,3.868-1.413l107.605-90.76a6,6,0,0,0,1.2-7.8ZM386.2,466.5H157.017L44.852,380.552,282.641,56.294,488.129,380.53Z"/></svg>