<svg xmlns="http://www.w3.org/2000/svg" data-name="Layer 1" viewBox="0 0 512 512"><polygon fill="#d4e1f4" points="48.77 383.15 78.77 401.39 78.77 210.742 48.77 192.27 48.77 383.15"/><path fill="#1ae5be" d="M272.507 293.346a6 6 0 00-6 6v20a6 6 0 0012 0v-20A6 6 0 00272.507 293.346zM272.507 253.346a6 6 0 00-6 6v20a6 6 0 0012 0v-20A6 6 0 00272.507 253.346zM272.507 333.346a6 6 0 00-6 6V344.1h12v-4.752A6 6 0 00272.507 333.346zM266.507 199.346a6 6 0 0012 0v-20h-12zM272.507 213.346a6 6 0 00-6 6v20a6 6 0 0012 0v-20A6 6 0 00272.507 213.346zM16 314.74a6 6 0 00-6 6v20a6 6 0 0012 0v-20A6 6 0 0016 314.74zM16 234.74a6 6 0 00-6 6v20a6 6 0 0012 0v-20A6 6 0 0016 234.74zM16 354.74a6 6 0 00-6 6v18.443a6 6 0 0012 0V360.74A6 6 0 0016 354.74zM16 274.74a6 6 0 00-6 6v20a6 6 0 0012 0v-20A6 6 0 0016 274.74zM16 194.74a6 6 0 00-6 6v20a6 6 0 0012 0v-20A6 6 0 0016 194.74z"/><path fill="#0635c9" d="M502,192.042a6,6,0,0,0-3.08-5.019L275.423,62.756a6,6,0,0,0-5.829,0L45.854,187.022a6,6,0,0,0-3.085,5.111c0,.045.006.089.006.135h-.007V383.153a6,6,0,0,0,2.882,5.127l100.083,60.847a5.925,5.925,0,0,0,6.883-.466l0,.006,120-96.948,127.768,97.058,0,0a5.982,5.982,0,0,0,6.936.232l91.982-60.847a6,6,0,0,0,2.689-5V192.268h-.011C501.989,192.192,502,192.117,502,192.042ZM272.506,74.864,484.438,192.7l-80.675,53.183L275.437,174.11a6,6,0,0,0-5.968.062L147.312,245.9,60.644,192.535ZM54.768,379.779V203.008l86.5,53.265,1.493,177Zm213.969-40.348L154.746,431.524l-1.478-175.2L272.58,186.262l125.439,70.162V431.908L276.137,339.32A5.994,5.994,0,0,0,268.737,339.431Zm141.282,93.406v-176.7L490,203.409v176.52Z"/></svg>