<svg xmlns="http://www.w3.org/2000/svg" data-name="Layer 1" viewBox="0 0 512 512"><polygon fill="#d4e1f4" points="87.84 358.406 87.84 123.277 65.84 136 65.84 376 273.34 496 299.819 480.687 88.135 358.17 87.84 358.406"/><polygon fill="#d4e1f4" points="188.66 216.815 158.66 200.39 158.66 301.77 188.66 320.653 188.66 216.815"/><path fill="#1ae5be" d="M273.131 404.809h.012a6 6 0 005.988-6.012l-.02-10a6 6 0 00-6-5.988H273.1a6 6 0 00-5.989 6.011l.02 10A6 6 0 00273.131 404.809zM273.247 454.124h-.012a6 6 0 00-5.988 6.011l.039 20.438a6 6 0 006 5.989h.012a6 6 0 005.988-6.011l-.039-20.439A6 6 0 00273.247 454.124zM273.17 413.247h-.012a6 6 0 00-5.988 6.012l.039 20.438a6 6 0 006 5.989h.012a6 6 0 005.988-6.012l-.039-20.439A6 6 0 00273.17 413.247zM82.271 153.4A6 6 0 0085.7 142.47l-16.432-11.4-6.84 9.86 16.432 11.4A5.976 5.976 0 0082.271 153.4zM128.155 186.53l16.434 11.4a6 6 0 006.84-9.861L135 176.669a6 6 0 00-6.84 9.861zM95.29 163.729l16.433 11.4a6 6 0 106.839-9.859l-16.432-11.4a6 6 0 10-6.84 9.859zM425.162 181.1a5.971 5.971 0 003.4-1.063l15.365-10.606a6 6 0 00-6.817-9.876l-15.364 10.606a6 6 0 003.413 10.939zM467.842 138.348l-15.364 10.606a6 6 0 106.816 9.876l15.364-10.606a6 6 0 10-6.816-9.876zM401.567 197.39a5.974 5.974 0 003.4-1.063l8.229-5.681a6 6 0 00-6.816-9.875l-8.23 5.68a6 6 0 003.413 10.939zM31.156 201.125a6 6 0 00-6 6v30a6 6 0 0012 0v-30A6 6 0 0031.156 201.125zM31.156 261.125a6 6 0 00-6 6v30a6 6 0 0012 0v-30A6 6 0 0031.156 261.125zM31.156 141.125a6 6 0 00-6 6v30a6 6 0 0012 0v-30A6 6 0 0031.156 141.125zM31.156 321.125a6 6 0 00-6 6v29.28a6 6 0 0012 0v-29.28A6 6 0 0031.156 321.125z"/><path fill="#0635c9" d="M483.848,130.806l-207.5-120a6,6,0,0,0-6.008,0l-207.5,120a6,6,0,0,0-3,5.194V376a6,6,0,0,0,3,5.194l207.5,120a6,6,0,0,0,6.008,0l207.5-120a6,6,0,0,0,3-5.194V136A6,6,0,0,0,483.848,130.806Zm-9,232.806L393.562,299.39v-99h0c0-.032,0-.063,0-.1a6,6,0,0,0-3.288-5.256L279.118,138.706l.207-112.316L474.844,139.461ZM164.66,210.514,267.111,266.6v96.34L164.66,298.456Zm108.451-61.4,101.582,51.479L273.111,256.208,171.529,200.594Zm6,117.488,102.451-56.089V298.97L279.111,362.985ZM267.325,26.412,267.118,138.7l-111.17,56.338a6,6,0,0,0-3.287,5.256c0,.033,0,.064,0,.1h-.006v98.5L71.844,363.519V139.461Zm6.019,462.657L76.448,375.2l82.627-66.082,110.84,69.767a6,6,0,0,0,6.376.011l110.867-69.273L470.19,375.23Z"/></svg>