<svg xmlns="http://www.w3.org/2000/svg" data-name="Layer 1" viewBox="0 0 512 512"><path fill="#d4e1f4" d="M167.21,444.31,120.067,296.265C153,307.779,204.213,315.18,261.75,315.18q7.575,0,15.007-.172c-87.025-1.967-156.476-20.9-164.2-44.7a14.336,14.336,0,0,1-.71-4.42c0-25.837,72.564-47.03,164.907-49.118q-7.431-.168-15.007-.172c-68.736,0-128.456,10.563-158.745,26.086l-34.964-109.8c42.165,16.8,113.187,27.833,193.709,27.833q7.565,0,15.009-.132C162.713,158.632,70.818,134.52,58.82,103.93a18.55,18.55,0,0,1-1.33-6.82c0-33.761,96.872-61.376,219.259-63.477q-7.442-.128-15-.133C132.37,33.5,27.49,61.98,27.49,97.11a18.55,18.55,0,0,0,1.33,6.82h0L137.21,444.31c17.25,22.91,56.36,34.19,125.88,34.19q7.212,0,14.089-.22C217.54,476.634,183.1,465.407,167.21,444.31Z"/><path fill="#1ae5be" d="M104.792 283.268c-6.435-3.4-11.144-6.9-14-10.415a6 6 0 10-9.319 7.558c3.877 4.781 9.837 9.314 17.713 13.47a6 6 0 105.6-10.613zM195.615 226.071c6.41-.7 13.042-1.308 19.711-1.8a6 6 0 00-.883-11.968c-6.811.5-13.585 1.121-20.135 1.839a6 6 0 00.646 11.965A6.155 6.155 0 00195.615 226.071zM118.944 242.294c5.563-2.067 11.8-4.032 18.54-5.84a6 6 0 10-3.109-11.59c-7.1 1.905-13.7 3.985-19.612 6.182a6 6 0 104.181 11.248zM179.687 303.709c-6.7-.955-13.244-2.04-19.461-3.225a6 6 0 10-2.246 11.787c6.4 1.22 13.133 2.336 20.013 3.317a6 6 0 101.694-11.879zM235.1 223.14c6.526-.268 13.193-.438 19.815-.507a6 6 0 00-.061-12H254.8c-6.744.07-13.534.243-20.183.516a6 6 0 00.242 12C234.937 223.145 235.02 223.144 235.1 223.14zM219.038 307.772c-6.674-.45-13.311-1.011-19.726-1.669a6 6 0 10-1.225 11.937c6.554.672 13.331 1.246 20.143 1.7.138.01.274.014.41.014a6 6 0 00.4-11.987zM258.643 309.176c-6.616-.03-13.284-.162-19.819-.392a6 6 0 10-.421 11.992c6.656.235 13.447.369 20.184.4h.029a6 6 0 00.027-12zM156.6 232.008c6.181-1.243 12.714-2.386 19.418-3.4a6 6 0 00-1.79-11.866c-6.9 1.04-13.622 2.217-20 3.5a6 6 0 001.177 11.883A6.064 6.064 0 00156.6 232.008zM413.663 286.394a171.843 171.843 0 01-18.175 6.535 6 6 0 103.474 11.486 183.311 183.311 0 0019.459-7.006 6 6 0 10-4.758-11.015zM410.341 244.006a6 6 0 104.461-11.14 202.456 202.456 0 00-19.536-6.587 6 6 0 00-3.294 11.539A190.646 190.646 0 01410.341 244.006zM448.957 260.629c-1.793-6.515-6.924-12.627-15.25-18.165a6 6 0 00-6.646 9.992c5.766 3.835 9.337 7.763 10.327 11.356a5.882 5.882 0 00.38 1.017 6.088 6.088 0 00-.094 1.062c0 4.488-4.29 8.726-7.89 11.492A6 6 0 10437.1 286.9c8.346-6.413 12.578-13.481 12.578-21.007a5.984 5.984 0 00-.595-2.609A5.968 5.968 0 00448.957 260.629zM376.55 297.88c-6.1 1.377-12.6 2.658-19.32 3.807a6 6 0 001 11.915 6.1 6.1 0 001.019-.087c6.923-1.184 13.631-2.506 19.938-3.93a6 6 0 10-2.641-11.7zM337.694 304.587c-6.376.812-12.994 1.529-19.671 2.132a6 6 0 00.532 11.975c.18 0 .363-.007.546-.024 6.823-.615 13.588-1.349 20.109-2.179a6 6 0 00-1.516-11.9zM372.942 233.108a6 6 0 102.516-11.733c-6.333-1.357-13.049-2.614-19.963-3.735a6 6 0 10-1.92 11.846C360.29 230.574 366.807 231.793 372.942 233.108zM334.007 226.739a6.091 6.091 0 00.722.043 6 6 0 00.708-11.958c-6.54-.785-13.31-1.471-20.12-2.04a6 6 0 00-1 11.958C320.985 225.3 327.609 225.971 334.007 226.739zM294.552 223.42c.1.005.206.008.309.008a6 6 0 00.3-11.992c-6.635-.337-13.424-.575-20.18-.708a6 6 0 10-.236 12C281.376 222.856 288.041 223.09 294.552 223.42zM298.27 308.163c-6.513.369-13.176.642-19.8.81a6 6 0 00.149 12l.155 0c6.752-.172 13.541-.449 20.177-.825a6 6 0 00-.678-11.981zM141.042 296.255c-6.735-1.709-13.021-3.573-18.682-5.54a6 6 0 10-3.939 11.334c5.985 2.081 12.6 4.045 19.671 5.837a6 6 0 102.95-11.631zM81.045 263.44a6 6 0 008.184-2.244c2.046-3.592 6.373-7.392 12.512-10.988a6 6 0 10-6.066-10.354c-8.065 4.724-13.742 9.906-16.873 15.4A6 6 0 0081.045 263.44zM51.9 273.652l-6.036-19.068a6 6 0 00-11.441 3.622l6.037 19.067a6 6 0 1011.44-3.621zM27.757 197.382L21.72 178.315a6 6 0 10-11.44 3.622L16.316 201a6 6 0 1011.441-3.622zM94.157 407.123a6 6 0 00-11.441 3.621l6.037 19.068a6 6 0 1011.44-3.622zM63.975 311.785l-6.037-19.066a6 6 0 00-11.44 3.623l6.037 19.066a6 6 0 0011.44-3.623zM39.83 235.517L33.793 216.45a6 6 0 10-11.44 3.622l6.036 19.067a6 6 0 0011.441-3.622zM76.048 349.921l-6.037-19.067a6 6 0 10-11.44 3.621l6.036 19.067a6 6 0 0011.441-3.621zM88.121 388.056l-6.037-19.068a6 6 0 00-11.44 3.621l6.036 19.068a6 6 0 0011.441-3.621z"/><path fill="#0635c9" d="M428.961,46.341C384.218,34.191,324.833,27.5,261.745,27.5S139.273,34.191,94.53,46.341c-33.32,9.049-73.039,25.2-73.039,50.771a24.658,24.658,0,0,0,1.789,9.193l108.208,339.83a6,6,0,0,0,.925,1.79c18.8,24.953,60.328,36.575,130.681,36.575,68.906,0,120.448-14.763,131.307-37.609a6.065,6.065,0,0,0,.312-.8l105.039-338.7A24.867,24.867,0,0,0,502,97.112C502,71.542,462.281,55.39,428.961,46.341ZM97.675,57.922C141.421,46.042,199.689,39.5,261.745,39.5,396.259,39.5,490,69.862,490,97.112c0,13.626-23.994,28.277-64.184,39.191-43.747,11.88-102.015,18.422-164.071,18.422-126.041,0-216.281-26.658-227.15-52.435l-.057-.179-.011,0a13.188,13.188,0,0,1-1.036-5C33.491,83.486,57.485,68.836,97.675,57.922ZM383.391,442.088c-3.948,7.711-17.142,15.237-36.322,20.7-22.322,6.355-51.361,9.714-83.975,9.714-65.467,0-103.812-9.86-120.492-31.012L42.384,126.752c14.449,9.339,34.222,16.264,52.146,21.132,44.743,12.15,104.128,18.841,167.215,18.841s122.473-6.691,167.216-18.841c17.964-4.879,37.784-11.823,52.241-21.194Z"/></svg>