<svg xmlns="http://www.w3.org/2000/svg" data-name="Layer 1" viewBox="0 0 512 512"><polygon fill="#d4e1f4" points="83.86 297.328 83.86 214.988 83.86 132.465 53.86 125.49 53.86 206.53 53.86 288 53.86 364.89 83.86 374.598 83.86 297.328"/><path fill="#1ae5be" d="M16 131.044a6 6 0 00-6 6v15a6 6 0 0012 0v-15A6 6 0 0016 131.044zM16 226.135a6 6 0 00-6 6v26.7a6 6 0 0012 0v-26.7A6 6 0 0016 226.135zM16 279.529a6 6 0 00-6 6v26.7a6 6 0 0012 0v-26.7A6 6 0 0016 279.529zM16 172.741a6 6 0 00-6 6v26.7a6 6 0 0012 0v-26.7A6 6 0 0016 172.741zM16 332.922a6 6 0 00-6 6v15a6 6 0 0012 0v-15A6 6 0 0016 332.922z"/><path fill="#0635c9" d="M499.723,120.783a5.986,5.986,0,0,0-2.42-1.15h0L274.814,70.143a6.02,6.02,0,0,0-2.621,0L52.538,119.635h0a6,6,0,0,0-4.682,5.853v239.4A6,6,0,0,0,52.01,370.6l219.756,71.107,3.674.007,222.387-71.108A6,6,0,0,0,502,364.892v-239.4A6,6,0,0,0,499.723,120.783ZM386.9,107.369l-34.132,8.6-54.882-12.78,33.267-8.223ZM222.257,121.886l49.966-12.35,55.141,12.841-51.453,12.969Zm29.055,19.661-48.907,12.328-56.45-13.128,51.461-12.72Zm22.209-59.4,31.313,6.966L272.14,97.2l-32.161-7.489ZM213.086,95.764l33.388,7.775L197.438,115.66l-34.379-8.624ZM113.611,377.921,59.856,360.527V296.151l53.925,16.769Zm.2-77.558L59.856,283.584V214.459L114,229.723Zm.218-83.1L59.856,201.991V133.044l54.363,12.643ZM80.744,125.581l56.332-12.691L172.6,121.8l-52.408,12.954Zm109.048,276.99L125.6,381.8l.17-65.153,65.179,20.268Zm1.378-78.153-65.365-20.326.185-70.988,66.461,18.738Zm1.5-84.982-66.648-18.791.189-72.169L194,164.24Zm75.046,188.349-65.991-21.353,1.161-65.8,65.665,20.419Zm.991-79.256-65.6-20.4,1.287-72.922,65.251,18.4Zm1.093-87.348L204.613,242.8l1.337-75.782L270.789,182.1ZM227.94,159.813l47.977-12.093,48.58,12.187-47.66,11.278Zm53.865,101.008.985-78.713,61.693-14.6.359,76.529ZM344.9,256.44l.344,73.323-64.537,18.851.942-75.334ZM279.717,427.749l.833-66.587L345.3,342.247l.3,64.435Zm20.8-286.23,52.366-13.2,52.971,12.336L349.875,153.9Zm55.953,23.153,71.015-16.8.194,74.115-70.852,18.864Zm.415,88.577,70.826-18.857.186,71.228-70.669,20.642Zm.7,149.6-.3-64.1,70.644-20.635.162,62.194Zm20.7-280.935,34.693-8.745,56.195,12.5L432.1,134.445ZM490,360.511l-49.918,15.961-.162-61.863L490,299.981Zm0-73.032-50.112,14.638L439.7,231.2,490,217.808Zm0-82.089-50.33,13.4-.192-73.76L490,133.074Z"/></svg>