<svg xmlns="http://www.w3.org/2000/svg" data-name="Layer 1" viewBox="0 0 512 512"><polygon fill="#d4e1f4" points="50.61 325.21 68.505 363.406 143.705 136.722 125.29 101.8 50.61 325.21"/><path fill="#1ae5be" d="M173.375 230.925a6 6 0 1011.67 2.793l4.655-19.45-11.671-2.793zM157.334 323.741a6 6 0 00-7.231 4.439l-4.655 19.451a6 6 0 1011.671 2.793l4.654-19.451A6 6 0 00157.334 323.741zM175.952 245.938a6 6 0 00-7.232 4.438l-4.655 19.451a6 6 0 1011.671 2.793l4.655-19.451A6 6 0 00175.952 245.938zM166.643 284.84a6 6 0 00-7.232 4.438l-4.654 19.451a6 6 0 1011.671 2.792l4.654-19.45A6 6 0 00166.643 284.84zM129.408 440.446a6 6 0 00-7.232 4.439l-4.655 19.451a6 6 0 1011.671 2.793l4.655-19.451A6 6 0 00129.408 440.446zM148.025 362.644a6 6 0 00-7.232 4.438l-4.654 19.45a6 6 0 1011.671 2.793l4.654-19.45A6 6 0 00148.025 362.644zM138.717 401.545a6 6 0 00-7.232 4.438l-4.655 19.452a6 6 0 1011.671 2.793l4.655-19.452A6 6 0 00138.717 401.545zM387.773 277.289a6 6 0 004.55-7.162l-4.354-19.521a6 6 0 10-11.712 2.612l4.354 19.52a5.994 5.994 0 007.162 4.551zM422.6 433.452a6 6 0 004.549-7.162L422.8 406.77a6 6 0 10-11.712 2.611l4.353 19.52a5.995 5.995 0 007.163 4.551zM431.5 445.811a6 6 0 10-11.712 2.611l4.354 19.52a6 6 0 1011.711-2.611zM379.066 238.248a6 6 0 004.55-7.163l-4.354-19.52-11.712 2.612L371.9 233.7a5.994 5.994 0 007.162 4.55zM413.894 394.411a6 6 0 004.549-7.162l-4.353-19.52a6 6 0 10-11.712 2.611l4.353 19.52a5.995 5.995 0 007.163 4.551zM396.48 316.33a6 6 0 004.55-7.162l-4.354-19.521a6 6 0 10-11.712 2.612l4.354 19.52a5.994 5.994 0 007.162 4.551zM405.187 355.37a6 6 0 004.549-7.162l-4.353-19.52a6 6 0 10-11.712 2.612l4.353 19.519a5.995 5.995 0 007.163 4.551zM83.862 96.156a6 6 0 00-7.684 3.6L69.37 118.561a6 6 0 1011.283 4.085l6.808-18.806A6 6 0 0083.862 96.156zM56.627 171.377a6 6 0 00-7.684 3.6l-6.809 18.805a6 6 0 1011.283 4.085l6.809-18.8A6 6 0 0056.627 171.377zM70.245 133.767a6 6 0 00-7.684 3.6l-6.809 18.8a6 6 0 1011.283 4.085l6.809-18.805A6 6 0 0070.245 133.767zM29.392 246.6a6 6 0 00-7.684 3.6L14.9 269a6 6 0 1011.283 4.086l6.809-18.806A6 6 0 0029.392 246.6zM43.009 208.988a6 6 0 00-7.684 3.6l-6.808 18.806A6 6 0 1039.8 235.478l6.808-18.806A6 6 0 0043.009 208.988z"/><path fill="#0635c9" d="M437.746,100.145l-.008,0c-.034-.12-.065-.24-.107-.358a6,6,0,0,0-3.3-3.512l-153.343-65.3a6,6,0,0,0-4.7,0l-153.343,65.3a6,6,0,0,0-3.3,3.512c-.013.035-.02.072-.032.108h0L44.915,323.308a6,6,0,0,0,.257,4.448l70.414,150.29a6,6,0,0,0,5.434,3.454H431.978a6,6,0,0,0,5.52-3.648l64.022-150.29a6,6,0,0,0,.248-4ZM278.635,43.021l145,61.744L369.787,206.871h-182.3L133.64,104.765ZM428.012,469.5H124.834L57.057,324.837l69.476-207.824,52.024,98.657a6,6,0,0,0,5.307,3.2H373.406a6,6,0,0,0,5.307-3.2L430.322,117.8l59.324,207.015Z"/></svg>