<svg xmlns="http://www.w3.org/2000/svg" data-name="Layer 1" viewBox="0 0 512 512"><polygon fill="#d4e1f4" points="46 120.21 120.824 36.982 87.98 37.25 16 120.21 247.54 475.61 230.197 402.941 46 120.21"/><path fill="#1ae5be" d="M66 126.214H86a6 6 0 000-12H66a6 6 0 000 12zM106 126.214h20a6 6 0 000-12H106a6 6 0 000 12zM286 114.214H266a6 6 0 000 12h20a6 6 0 000-12zM206 114.214H186a6 6 0 000 12h20a6 6 0 000-12zM246 114.214H226a6 6 0 000 12h20a6 6 0 000-12zM172 120.214a6 6 0 00-6-6H146a6 6 0 000 12h20A6 6 0 00172 120.214zM406 114.214H386a6 6 0 000 12h20a6 6 0 000-12zM52 120.214a6 6 0 00-6-6H26a6 6 0 000 12H46A6 6 0 0052 120.214zM446 114.214H426a6 6 0 000 12h20a6 6 0 000-12zM366 114.214H346a6 6 0 000 12h20a6 6 0 000-12zM326 114.214H306a6 6 0 000 12h20a6 6 0 000-12zM486 114.214H466a6 6 0 000 12h20a6 6 0 000-12zM58.235 259.056A6 6 0 0048.38 265.9L65.494 290.54a6 6 0 109.856-6.846zM126.7 357.611a6 6 0 10-9.855 6.846L133.955 389.1a6 6 0 109.856-6.846zM92.465 308.333a6 6 0 00-9.856 6.846l17.116 24.639a6 6 0 109.855-6.845zM160.925 406.889a6 6 0 00-9.856 6.845l17.116 24.64a6 6 0 109.855-6.846zM195.155 456.167a6 6 0 10-9.855 6.846l4.59 6.607a6 6 0 109.855-6.846zM24.005 209.778a6 6 0 10-9.856 6.846l17.116 24.638a6 6 0 009.855-6.845z"/><path fill="#0635c9" d="M428.168,30.647a6,6,0,0,0-4.6-2.147h-.048L87.933,31.246a6,6,0,0,0-4.484,2.067L11.468,116.282a6,6,0,0,0-.495,7.208l231.537,355.4c.065.1.135.2.206.3a10.572,10.572,0,0,0,8.575,4.318h0a10.573,10.573,0,0,0,8.574-4.316c.049-.066.1-.133.143-.2L500.963,124.348a6,6,0,0,0-.363-7.225ZM284.818,41.635,346.4,121.507l-94.96,344.608L169.181,121.446l55.561-79.319ZM90.738,43.223l119.269-.976-52.2,74.525a5.993,5.993,0,0,0-.922,4.835l76.781,321.715L23.5,120.729Zm179.726,399.02,88.3-320.435a6,6,0,0,0-1.033-5.257L299.876,41.512l120.91-.989,67.7,80.83Z"/></svg>