<svg xmlns="http://www.w3.org/2000/svg" data-name="Layer 1" viewBox="0 0 512 512"><polygon fill="#d4e1f4" points="33.44 486 63.44 486 279.72 58.527 264.72 28.88 33.44 486"/><path fill="#1ae5be" d="M264.721 120.264a6 6 0 006-6V95.419a6 6 0 10-12 0v18.845A6 6 0 00264.721 120.264zM264.721 82.574a6 6 0 006-6V57.729a6 6 0 10-12 0V76.574A6 6 0 00264.721 82.574zM264.721 157.954a6 6 0 006-6V133.109a6 6 0 10-12 0v18.845A6 6 0 00264.721 157.954zM264.721 195.644a6 6 0 006-6V170.8a6 6 0 10-12 0v18.845A6 6 0 00264.721 195.644zM264.721 271.025a6 6 0 006-6V246.18a6 6 0 00-12 0v18.845A6 6 0 00264.721 271.025zM264.721 308.715a6 6 0 006-6V283.87a6 6 0 00-12 0v18.845A6 6 0 00264.721 308.715zM264.721 233.334a6 6 0 006-6V208.489a6 6 0 00-12 0v18.845A6 6 0 00264.721 233.334zM474.5 464.431l-16.511-11.025a6 6 0 10-6.664 9.979l16.511 11.026a6 6 0 106.664-9.98zM375.437 398.277l-16.511-11.025a6 6 0 10-6.664 9.979l16.511 11.026a6 6 0 106.664-9.98zM408.459 420.329L391.948 409.3a6 6 0 00-6.664 9.98L401.8 430.308a6 6 0 106.664-9.979zM342.414 376.226L325.9 365.2a6 6 0 10-6.664 9.979l16.511 11.026a6 6 0 106.664-9.98zM309.392 354.175L292.88 343.149a6 6 0 00-6.664 9.98l16.512 11.025a6 6 0 006.664-9.979zM441.482 442.38l-16.511-11.026a6 6 0 10-6.664 9.98l16.511 11.025a6 6 0 106.664-9.979zM276.37 332.124l-5.649-3.772V321.56a6 6 0 10-12 0v6.792l-5.648 3.772a6 6 0 106.664 9.979l4.984-3.328 4.985 3.328a6 6 0 006.664-9.979zM137.494 409.3l-16.511 11.026a6 6 0 006.664 9.98l16.511-11.026a6 6 0 10-6.664-9.98zM104.472 431.354L87.96 442.38a6 6 0 106.665 9.98l16.511-11.026a6 6 0 00-6.664-9.98zM203.539 365.2l-16.511 11.026a6 6 0 106.664 9.979L210.2 375.18a6 6 0 10-6.664-9.979zM170.517 387.252l-16.512 11.026a6 6 0 106.664 9.979l16.512-11.026a6 6 0 00-6.664-9.979zM236.562 343.149L220.05 354.175a6 6 0 106.664 9.98l16.512-11.026a6 6 0 00-6.664-9.98zM71.449 453.406L54.938 464.432a6 6 0 106.664 9.979l16.511-11.026a6 6 0 10-6.664-9.979zM121.234 208.292a5.994 5.994 0 008.057-2.66l13.491-26.8a6 6 0 00-10.718-5.4l-13.491 26.8A6 6 0 00121.234 208.292zM67.268 315.473a5.994 5.994 0 008.057-2.661l13.491-26.794a6 6 0 10-10.717-5.4l-13.492 26.8A6 6 0 0067.268 315.473zM59.173 331.551a6 6 0 00-8.057 2.66L37.624 361.006a6 6 0 1010.718 5.4l13.491-26.8A6 6 0 0059.173 331.551zM202.183 47.522a5.994 5.994 0 008.057-2.661L218.378 28.7a6 6 0 00-10.718-5.4l-8.138 16.163A6 6 0 00202.183 47.522zM113.139 224.37a6 6 0 00-8.057 2.661L91.59 253.826a6 6 0 1010.718 5.4L115.8 232.427A6 6 0 00113.139 224.37zM32.19 385.141a6 6 0 00-8.057 2.661L10.641 414.6a6 6 0 1010.718 5.4l13.492-26.8A6 6 0 0032.19 385.141zM156.274 152.042l13.491-26.795a6 6 0 10-10.718-5.4l-13.491 26.8a6 6 0 1010.718 5.4zM194.088 63.6a6 6 0 00-8.057 2.661l-13.492 26.8a6 6 0 1010.718 5.4l13.492-26.8A6 6 0 00194.088 63.6z"/><path fill="#0635c9" d="M501.111,489.142a6,6,0,0,0,.243-5.85L270.075,26.174a6,6,0,0,0-10.708,0L28.088,483.292A6,6,0,0,0,33.442,492H496A6,6,0,0,0,501.111,489.142ZM43.2,480,264.721,42.174,486.24,480Z"/></svg>