<svg xmlns="http://www.w3.org/2000/svg" data-name="Layer 1" viewBox="0 0 512 512"><polygon fill="#d4e1f4" points="165.63 113.392 135.63 104.9 135.63 239.78 165.63 247.025 165.63 113.392"/><polygon fill="#d4e1f4" points="16 401.48 46 409.868 46 277.164 16 268.67 16 401.48"/><path fill="#1ae5be" d="M255.252 229.447a6 6 0 006-6V204.776a6 6 0 00-12 0v18.671A6 6 0 00255.252 229.447zM255.252 348.141a6 6 0 00-6 6v18.671a6 6 0 0012 0V354.141A6 6 0 00255.252 348.141zM261.252 316.8a6 6 0 00-12 0v18.67a6 6 0 0012 0zM255.252 192.106a6 6 0 006-6V167.435a6 6 0 00-12 0v18.671A6 6 0 00255.252 192.106zM255.252 154.765a6 6 0 006-6v-10h-12v10A6 6 0 00255.252 154.765zM250.862 273.784l1.57.38a6 6 0 00-3.18 5.294v18.671a6 6 0 0012 0V279.458a6 6 0 00-3.211-5.31l2.17-.562a5.994 5.994 0 00.85-11.32 6 6 0 00.191-1.478v-18.67a6 6 0 00-12 0v18.67a6 6 0 00.285 1.827 6 6 0 001.325 11.169zM195.357 248.032l-19.44-4.7A6 6 0 00173.1 255l19.44 4.7a6 6 0 102.818-11.664zM234.239 257.424l-19.44-4.7a6 6 0 00-2.819 11.664l19.441 4.7a6 6 0 102.818-11.664zM156.476 238.64l-19.441-4.7a6 6 0 00-2.818 11.664l19.44 4.7a6 6 0 002.819-11.664zM279.572 268.575l19.363-5.013a6 6 0 00-3.008-11.617l-19.363 5.013a6 6 0 103.008 11.617zM318.3 258.551l19.362-5.012a6 6 0 00-3.008-11.618l-19.362 5.013a6 6 0 103.008 11.617zM357.02 248.527l19.362-5.012a6 6 0 00-3.008-11.618l-19.362 5.013a6 6 0 103.008 11.617zM100.752 133.259a6 6 0 006-6v-15a6 6 0 00-12 0v15A6 6 0 00100.752 133.259zM100.752 185.151a6 6 0 006-6V153.205a6 6 0 00-12 0v25.946A6 6 0 00100.752 185.151zM100.752 226.1a6 6 0 006-6v-15a6 6 0 00-12 0v15A6 6 0 00100.752 226.1z"/><path fill="#0635c9" d="M502,269.708a6,6,0,0,0-4.466-5.77L381.861,233.346a1.321,1.321,0,0,1-.983-1.277V104.9h-.008c0-.039.008-.077.007-.116a6,6,0,0,0-4.59-5.716l-119.626-28.9a5.967,5.967,0,0,0-2.818,0l-119.626,28.9a6,6,0,0,0-4.59,5.716c0,.039.007.077.007.116h-.008V234.013a1.321,1.321,0,0,1-1.011,1.284L14.591,262.84A6,6,0,0,0,10,268.556c0,.039.007.077.007.116H10v132.81a6,6,0,0,0,4.384,5.778L134.01,440.712a5.993,5.993,0,0,0,3.232,0l117.992-32.895h0L374.729,441.77a6,6,0,0,0,3.261.008l119.626-33.452A6,6,0,0,0,502,402.548V269.738h0C502,269.728,502,269.718,502,269.708ZM164.173,104.174l90.769-21.927a1.326,1.326,0,0,1,.62,0l90.769,21.927a1.321,1.321,0,0,1,.049,2.555l-90.768,25.7a1.315,1.315,0,0,1-.72,0l-90.768-25.7A1.321,1.321,0,0,1,164.173,104.174ZM129.626,425.285a1.32,1.32,0,0,1-1.677,1.272L22.965,397.2A1.322,1.322,0,0,1,22,395.927V278.354a1.321,1.321,0,0,1,1.681-1.271l104.984,29.722a1.324,1.324,0,0,1,.961,1.272ZM370.374,426.3a1.322,1.322,0,0,1-1.683,1.271l-113.426-32.5v-.015L143.3,426.557a1.32,1.32,0,0,1-1.677-1.272V308.077a1.324,1.324,0,0,1,.961-1.272l112.312-31.8a1.327,1.327,0,0,1,.718,0L369.41,306.975a1.321,1.321,0,0,1,.964,1.272Zm6.365-129.926a1.316,1.316,0,0,1-.7,0L253.617,262.9v0L135.986,296.2a1.334,1.334,0,0,1-.72,0L44.5,270.505a1.322,1.322,0,0,1,.049-2.556l92.044-22.233a1.322,1.322,0,0,0,.728-.467l4.025-5.114a1.322,1.322,0,0,0,.283-.817V114.578a1.321,1.321,0,0,1,1.681-1.271l110.31,31.23a6,6,0,0,0,3.27,0l110.31-31.23a1.321,1.321,0,0,1,1.681,1.271V236.385a1.32,1.32,0,0,0,1.321,1.321l3.483,4.524a1.321,1.321,0,0,0,.939,1.615l93.63,24.761a1.321,1.321,0,0,1,.013,2.551ZM490,396.993a1.322,1.322,0,0,1-.965,1.273L384.051,427.623a1.32,1.32,0,0,1-1.677-1.272V308.276a1.322,1.322,0,0,1,.97-1.274l104.984-28.926A1.321,1.321,0,0,1,490,279.35Z"/></svg>