<svg xmlns="http://www.w3.org/2000/svg" data-name="Layer 1" viewBox="0 0 512 512"><path fill="#d4e1f4" d="M93.32,249.83c0-10.942,12.688-21.552,34.327-30.306,5.485,4.54,15.188,8.7,28.126,12.266a10.9,10.9,0,0,1-3.143-5.75,7.331,7.331,0,0,1-.09-1.15V69.46q-.9-.267-1.779-.538C178.3,77.42,223.419,82.96,274.41,82.96q7.593,0,15-.163C212.572,81.136,152.54,66.854,152.54,49.48s60.032-31.657,136.869-33.317q-7.4-.16-15-.163c-83.88,0-151.87,14.99-151.87,33.48V210.89a7.331,7.331,0,0,0,.09,1.15c-37.15,9.81-59.31,23-59.31,37.79V449.46c0,8.748,10.958,16.931,30,23.923V370.244c.212.091.42.183.634.274a14.708,14.708,0,0,1-.634-4.238V277.793l-.036-.016c36.893,15.846,104.2,26.453,181.126,26.453q7.566,0,15-.138C179.823,302.108,93.32,278.57,93.32,249.83Z"/><path fill="#1ae5be" d="M281.6 402.646h.052c6.724-.058 13.5-.2 20.15-.419a6 6 0 10-.4-11.994c-6.549.218-13.229.357-19.855.414a6 6 0 00.051 12zM321.587 401.313c.119 0 .238 0 .358-.01 6.758-.4 13.527-.887 20.119-1.457a6 6 0 10-1.033-11.955c-6.483.56-13.141 1.042-19.79 1.432a6 6 0 00.346 11.99zM103.708 380.289a6 6 0 002-11.659 140.822 140.822 0 01-17.644-7.477 6 6 0 00-5.518 10.655 152.544 152.544 0 0019.162 8.136A5.983 5.983 0 00103.708 380.289zM201.113 399.335c6.577.623 13.344 1.165 20.11 1.614.135.009.27.014.4.014a6 6 0 00.392-11.987c-6.656-.442-13.31-.976-19.776-1.587a6 6 0 00-1.129 11.946zM69.09 360.967a6 6 0 004.4-10.08c-2.769-2.986-4.173-5.883-4.173-8.609a6 6 0 00-12 0c0 5.85 2.481 11.492 7.373 16.768A5.987 5.987 0 0069.09 360.967zM241.358 402.02c6.64.267 13.418.454 20.149.558h.094a6 6 0 00.09-12c-6.631-.1-13.31-.287-19.85-.55a6 6 0 00-.483 11.991zM361.445 397.852a5.968 5.968 0 00.7-.041c6.828-.8 13.568-1.7 20.034-2.679a6 6 0 10-1.8-11.864c-6.331.959-12.935 1.842-19.628 2.624a6 6 0 00.689 11.96zM485.5 336.278a6 6 0 00-6 6c0 3.732-2.576 7.713-7.655 11.833a6 6 0 107.558 9.32c8.027-6.51 12.1-13.626 12.1-21.153A6 6 0 00485.5 336.278zM419.1 375.709c-6.054 1.5-12.528 2.916-19.242 4.214a6 6 0 102.278 11.782c6.916-1.338 13.592-2.8 19.845-4.346a6 6 0 00-2.881-11.65zM455.968 363.478a169.226 169.226 0 01-18.028 6.9 6 6 0 103.7 11.414 181.155 181.155 0 0019.317-7.4 6 6 0 10-4.993-10.912zM142.317 390.713a6 6 0 001.21-11.877c-6.716-1.39-13.159-2.9-19.152-4.5a6 6 0 00-3.082 11.6c6.207 1.649 12.869 3.213 19.8 4.648A6.025 6.025 0 00142.317 390.713zM161.025 394.252c6.448 1.047 13.182 2.015 20.016 2.876a6 6 0 101.5-11.906c-6.692-.843-13.284-1.79-19.592-2.815a6 6 0 00-1.924 11.845zM401.477 149.934a5.981 5.981 0 001.835-.289c6.729-2.16 13.2-4.507 19.237-6.977a6 6 0 10-4.543-11.106c-5.75 2.352-11.928 4.592-18.361 6.657a6 6 0 001.832 11.715zM323.183 165.746a6 6 0 00.639-.034c6.767-.715 13.528-1.575 20.095-2.556a6 6 0 10-1.772-11.868c-6.4.955-12.988 1.793-19.586 2.491a6 6 0 00.624 11.967zM162.735 157.551c6.435 1.448 13.134 2.778 19.909 3.952a6 6 0 002.05-11.824c-6.581-1.14-13.082-2.43-19.324-3.835a6 6 0 10-2.635 11.707zM362.731 159.816a5.994 5.994 0 001.17-.115c6.775-1.339 13.445-2.838 19.824-4.455a6 6 0 00-2.948-11.632c-6.174 1.565-12.635 3.017-19.2 4.315a6 6 0 001.157 11.887zM283.281 168.377l.168 0c6.753-.186 13.551-.5 20.207-.938a6 6 0 00-.786-11.975c-6.5.427-13.149.736-19.751.917a6 6 0 00.162 12zM243.012 167.991c6.67.312 13.472.5 20.216.566h.058a6 6 0 00.055-12c-6.6-.063-13.247-.249-19.769-.554a6 6 0 10-.56 11.987zM202.689 164.511c6.591.841 13.365 1.562 20.134 2.143.175.015.347.023.52.023a6 6 0 00.506-11.979c-6.6-.567-13.213-1.27-19.641-2.091a6 6 0 00-1.519 11.9zM123.6 146.262c6.146 2.23 12.682 4.34 19.426 6.27a6 6 0 003.3-11.537c-6.479-1.854-12.748-3.877-18.635-6.013a6 6 0 10-4.093 11.28zM26.5 392.842a6 6 0 006-6v-30a6 6 0 00-12 0v30A6 6 0 0026.5 392.842zM26.5 332.842a6 6 0 006-6v-30a6 6 0 00-12 0v30A6 6 0 0026.5 332.842zM26.5 452.842a6 6 0 006-6v-30a6 6 0 00-12 0v30A6 6 0 0026.5 452.842zM26.5 272.842a6 6 0 006-6v-30a6 6 0 10-12 0v30A6 6 0 0026.5 272.842z"/><path fill="#0635c9" d="M123.851,488.229C164.133,497.109,217.6,502,274.408,502s110.275-4.891,150.556-13.771c44.15-9.733,66.536-22.776,66.536-38.766V249.83c0-16.81-20.457-31.413-59.224-42.357V49.481c0-12.576-16.089-22.237-49.189-29.534C353.991,13.533,315.4,10,274.408,10s-79.584,3.533-108.679,9.947c-33.1,7.3-49.19,16.958-49.19,29.534v158c-39.3,11.008-59.224,25.244-59.224,42.345V449.463C57.315,465.453,79.7,478.5,123.851,488.229Zm342.287-25.973c-10.021,5.223-25.152,10.153-43.757,14.254-39.459,8.7-92.01,13.49-147.973,13.49s-108.515-4.791-147.973-13.49c-18.606-4.1-33.737-9.031-43.758-14.254-8.491-4.425-13.362-9.089-13.362-12.793V270.777c31.581,25.761,120.466,39.452,205.093,39.452S447.92,296.538,479.5,270.777V449.463C479.5,453.167,474.63,457.831,466.138,462.256ZM128.539,66.114c8.159,4.947,20.512,9.224,37.19,12.9,29.1,6.414,67.692,9.947,108.679,9.947s79.583-3.533,108.679-9.947c16.677-3.677,29.031-7.954,37.189-12.9V210.886c0,2.516-7.145,10.622-39.773,17.815-28.273,6.233-65.951,9.666-106.095,9.666s-77.823-3.433-106.1-9.666c-32.627-7.193-39.773-15.3-39.773-17.815Zm39.773-34.448C196.585,25.433,234.264,22,274.408,22s77.823,3.433,106.095,9.666c32.628,7.192,39.773,15.3,39.773,17.815S413.131,60.1,380.5,67.3c-28.273,6.233-65.951,9.666-106.095,9.666s-77.823-3.433-106.1-9.666C135.685,60.1,128.539,52,128.539,49.481S135.685,38.859,168.312,31.666ZM119.181,219.2c5.788,8.628,21.158,15.618,46.548,21.215,29.1,6.415,67.692,9.948,108.679,9.948s79.583-3.533,108.679-9.948c25.393-5.6,40.763-12.589,46.549-21.218C454.6,226.375,479.5,237.766,479.5,249.83c0,8.645-15.059,21.764-57.325,32.656-39.4,10.152-91.873,15.743-147.767,15.743s-108.373-5.591-147.768-15.743c-42.265-10.892-57.325-24.011-57.325-32.656C69.315,245.861,73.013,232.238,119.181,219.2Z"/></svg>