<svg xmlns="http://www.w3.org/2000/svg" data-name="Layer 1" viewBox="0 0 512 512"><path fill="#d4e1f4" d="M291.18,38.137q-7.437-.132-15-.137C154.78,38,56.36,63.91,56.36,95.88q0,.675.06,1.35h-.06V403.09C61.98,443.51,154.78,474,276.18,474q7.53,0,14.924-.163C177.173,471.427,91.745,441.819,86.36,403.09V125.082l-.009,0C124.5,142.237,195.225,153.76,276.18,153.76q7.565,0,15-.136c-112.712-2-202.145-26.365-204.76-56.394q-.06-.675-.06-1.35C86.36,65.238,176.778,40.167,291.18,38.137Z"/><path fill="#1ae5be" d="M298.046 77.336c6.694.19 13.36.475 19.815.846.118.006.234.009.35.009a6 6 0 00.338-11.99c-6.57-.377-13.353-.666-20.161-.86a6 6 0 10-.342 12zM342.274 115.485a6 6 0 00-6.5-5.452c-6.346.558-13 1.029-19.759 1.4a6 6 0 00.322 11.991c.109 0 .221 0 .332-.008 6.9-.377 13.679-.857 20.156-1.427A6 6 0 00342.274 115.485zM178.586 84.628a6.081 6.081 0 001.132-.107c5.868-1.121 12.4-2.144 19.4-3.042a6 6 0 10-1.525-11.9c-7.248.929-14.02 1.991-20.128 3.156a6 6 0 001.118 11.895zM262.337 118.36a6 6 0 00-5.835-6.16c-6.7-.182-13.364-.458-19.818-.819a6 6 0 10-.67 11.981c6.568.368 13.351.648 20.162.833.055 0 .111 0 .166 0A6 6 0 00262.337 118.36zM218.249 79.417c.173 0 .347-.007.522-.022 6.358-.548 13.006-1.008 19.763-1.367a6 6 0 00-.637-11.984c-6.887.367-13.668.836-20.157 1.395a6 6 0 00.509 11.978zM159.368 99.845a6 6 0 10-3.937 11.336 154.787 154.787 0 0020.157 5.229 6.074 6.074 0 001.177.116 6 6 0 001.162-11.886A142.827 142.827 0 01159.368 99.845zM381.835 109.556a6 6 0 00-7.036-4.742c-5.848 1.139-12.37 2.181-19.387 3.1a6 6 0 00.769 11.95 6.138 6.138 0 00.784-.05c7.264-.949 14.035-2.031 20.127-3.218A6 6 0 00381.835 109.556zM141.7 99.7a5.993 5.993 0 007.086-4.433c.262-.386 2.308-2.942 12.24-6.162a6 6 0 10-3.7-11.415c-12.492 4.049-18.921 8.779-20.231 14.885A6 6 0 00141.7 99.7zM222.368 116.464a6 6 0 00-5.44-6.511c-6.863-.616-13.468-1.343-19.633-2.161a6 6 0 10-1.58 11.895c6.334.841 13.11 1.587 20.142 2.218.182.016.363.024.542.024A6 6 0 00222.368 116.464zM258.205 77.264l.15 0c6.067-.149 12.274-.225 18.45-.225l1.394 0h.013a6 6 0 00.013-12l-1.42 0c-6.274 0-12.579.077-18.744.229a6 6 0 00.144 12zM302.346 118.066a6.028 6.028 0 00-6.154-5.843c-6.367.165-12.89.249-19.387.249h-.461a6 6 0 000 12h.461c6.6 0 13.227-.085 19.7-.253A6 6 0 00302.346 118.066zM410.75 88.755a6 6 0 00-5.984 5.566c-.435.567-2.648 2.887-11.338 5.8a6 6 0 103.816 11.377c8.373-2.809 19.506-7.6 19.506-16.745A6 6 0 00410.75 88.755zM337.614 79.641c6.873.628 13.477 1.368 19.625 2.2a6 6 0 101.61-11.891c-6.321-.855-13.1-1.616-20.143-2.259a6 6 0 00-1.092 11.95zM376.587 85.051a135.527 135.527 0 0118.481 4.906 6 6 0 104.069-11.289 147.3 147.3 0 00-20.163-5.377 6 6 0 10-2.387 11.76zM16 346.707a6 6 0 006-6v-30a6 6 0 00-12 0v30A6 6 0 0016 346.707zM22 393.3V370.707a6 6 0 00-12 0V393.3a6 6 0 0012 0zM16 286.707a6 6 0 006-6v-30a6 6 0 00-12 0v30A6 6 0 0016 286.707zM16 226.707a6 6 0 006-6v-30a6 6 0 00-12 0v30A6 6 0 0016 226.707zM16 166.707a6 6 0 006-6v-30a6 6 0 00-12 0v30A6 6 0 0016 166.707z"/><path fill="#0635c9" d="M276.18,32C166.708,32,50.36,54.389,50.36,95.881c0,.452.032.9.059,1.347H50.36V403.092a6.018,6.018,0,0,0,.058.827c3.107,22.334,27.515,41.523,70.584,55.492C161.937,472.688,217.046,480,276.18,480c59.317,0,114.923-7.4,156.573-20.838,44.245-14.275,68.188-33.566,69.24-55.786,0-.094.007-.189.007-.284V97.228h-.059c.027-.448.059-.895.059-1.347C502,54.389,385.652,32,276.18,32ZM122.272,60.755C163.306,49.951,217.965,44,276.18,44s112.874,5.951,153.908,16.755C459.052,68.382,490,81.614,490,95.881s-30.948,27.5-59.912,35.127c-41.034,10.8-95.693,16.755-153.908,16.755s-112.874-5.951-153.908-16.755C93.309,123.381,62.36,110.149,62.36,95.881S93.309,68.382,122.272,60.755Zm306.8,386.987C388.577,460.805,334.28,468,276.18,468c-57.91,0-111.705-7.1-151.476-20C87.69,435.991,65.009,419.484,62.36,402.651V117.635c32.421,27.506,125.359,42.128,213.82,42.128s181.4-14.622,213.82-42.128V402.94C489.115,419.207,466.921,435.529,429.068,447.742Z"/></svg>