<svg xmlns="http://www.w3.org/2000/svg" data-name="Layer 1" viewBox="0 0 512 512"><rect width="30" height="325.31" x="55.21" y="158.19" fill="#d4e1f4"/><path fill="#1ae5be" d="M362.178 116.407a6 6 0 00-6.208-10.27l-17.116 10.347a6 6 0 106.208 10.269zM307.732 148.312a5.973 5.973 0 003.1-.866L327.946 137.1a6 6 0 10-6.208-10.269l-17.115 10.346a6 6 0 003.109 11.135zM287.507 147.523l-9.156 5.535 3.11 11.136a5.979 5.979 0 003.1-.866l9.156-5.535a6 6 0 00-6.208-10.27zM410.427 86.233a5.967 5.967 0 003.1-.866l17.116-10.346a6 6 0 10-6.208-10.27L407.317 75.1a6 6 0 003.11 11.135zM475.78 33.712a6 6 0 106.208 10.269L499.1 33.635 492.9 23.365zM398.44 87.475a6 6 0 00-8.239-2.031L373.085 95.791a6 6 0 106.208 10.27l17.116-10.347A6 6 0 00398.44 87.475zM444.659 65.541a5.974 5.974 0 003.1-.867l17.116-10.346a6 6 0 00-6.208-10.27L441.549 54.405a6 6 0 003.11 11.136zM16 272.446a6 6 0 006-6v-30a6 6 0 00-12 0v30A6 6 0 0016 272.446zM16 452.446a6 6 0 006-6v-30a6 6 0 00-12 0v30A6 6 0 0016 452.446zM16 392.446a6 6 0 006-6v-30a6 6 0 00-12 0v30A6 6 0 0016 392.446zM16 332.446a6 6 0 006-6v-30a6 6 0 00-12 0v30A6 6 0 0016 332.446zM16 212.446a6 6 0 006-6v-30a6 6 0 00-12 0v30A6 6 0 0016 212.446z"/><path fill="#0635c9" d="M55.207,489.5H281.455a5.965,5.965,0,0,0,3.474-1.114l0,0L490.644,342.143a6,6,0,0,0,2.521-4.719L502,28.671a6,6,0,0,0-1.712-4.37,5.939,5.939,0,0,0-4.335-1.8l-186.7,1.513a6.009,6.009,0,0,0-2.653.643L52.5,152.836l0,0a6,6,0,0,0-3.3,5.353V483.5A6,6,0,0,0,55.207,489.5Zm220.248-12H61.207V164.193H275.455ZM310.756,36,489.824,34.55l-8.569,299.544-193.8,137.779V158.193a6,6,0,0,0-6-6H80.422Z"/></svg>