<svg xmlns="http://www.w3.org/2000/svg" width="512" height="512" enable-background="new 0 0 512 512" viewBox="0 0 512 512"><polygon fill="#5DB8F5" points="206.589 373.384 206.589 20.506 437.877 152.971 437.877 504.108"/><polygon fill="#3C7FC2" points="437.877 504.108 456.8 493.596 456.8 140.356 437.877 152.971"/><polygon fill="#8BEAFF" points="206.589 20.506 225.512 7.891 456.8 140.356 437.877 152.971"/><path fill="#FFF" d="M225.512,361.131V96.2l93.617,54.02c2.601,1.503,6.308,1.501,8.911,0c2.599-1.504,4.706-4.28,4.706-7.284
			v-27.812l82.228,44.776c4.058,2.21,6.083,6.46,6.083,11.081v288.733c0,2.238-1.188,4.308-3.117,5.439
			c-1.93,1.133-4.315,1.157-6.269,0.065L225.512,361.131z"/><polygon fill="#5DB8F5" points="246.538 134.048 400.03 222.357 400.03 239.179 246.538 150.869"/><polygon fill="#5DB8F5" points="246.538 169.792 400.03 258.102 400.03 274.923 246.538 186.614"/><polygon fill="#5DB8F5" points="246.538 203.435 400.03 291.745 400.03 308.565 246.538 220.255"/><polygon fill="#EDAC01" points="55.2 203.435 55.2 363.232 252.847 474.671 252.847 321.181"/><polygon fill="#D4720A" points="252.847 474.671 275.976 459.954 275.976 310.667 252.847 321.181"/><polygon fill="#EDAC01" points="55.2 203.435 76.227 192.921 275.976 310.667 252.847 321.181"/><polygon fill="#FFEE40" points="55.2 203.435 149.818 363.232 252.847 321.181"/><g><path fill="#F03939" d="M357.979,353.909l46.063,24.082c-2.074-25.134-20.834-54.425-46.063-68.185V353.909z"/><path fill="#EDAC01" d="M349.567,357.924V305.78c-23.129-9.311-41.956,1.384-41.956,25.952c0,26.711,21.696,59.68,48.407,73.645
			c25.293,13.222,45.963,4.647,48.097-18.975L349.567,357.924z"/></g><g><path fill="#FFF" d="M318.027,123.181c0,5.807-4.705,7.69-10.513,4.206s-10.513-11.013-10.513-16.821
			c0-5.807,4.705-7.69,10.513-4.206C313.322,109.845,318.027,117.375,318.027,123.181z"/><path fill="#F03939" d="M284.387,102.154c0,5.808-4.708,7.691-10.514,4.206c-5.807-3.485-10.513-11.013-10.513-16.82
			s4.706-7.691,10.513-4.206C279.679,88.819,284.387,96.349,284.387,102.154z"/><path fill="#FFED31" d="M250.744,81.128c0,5.807-4.706,7.69-10.513,4.206c-5.807-3.485-10.513-11.014-10.513-16.821
			s4.706-7.69,10.513-4.206C246.038,67.793,250.744,75.323,250.744,81.128z"/></g></svg>